<?xml version="1.0" encoding="UTF-8" standalone="no"?>
<!-- Created with Inkscape (http://www.inkscape.org/) -->

<svg
   xmlns:dc="http://purl.org/dc/elements/1.1/"
   xmlns:cc="http://creativecommons.org/ns#"
   xmlns:rdf="http://www.w3.org/1999/02/22-rdf-syntax-ns#"
   xmlns:svg="http://www.w3.org/2000/svg"
   xmlns="http://www.w3.org/2000/svg"
   xmlns:sodipodi="http://sodipodi.sourceforge.net/DTD/sodipodi-0.dtd"
   xmlns:inkscape="http://www.inkscape.org/namespaces/inkscape"
   width="307.6608mm"
   height="259.36679mm"
   viewBox="0 0 1090.1367 919.01618"
   id="svg5346"
   version="1.1"
   inkscape:version="0.91 r13725"
   sodipodi:docname="1980sgamesys-ja.svg">
  <defs
     id="defs5348" />
  <sodipodi:namedview
     id="base"
     pagecolor="#ffffff"
     bordercolor="#666666"
     borderopacity="1.0"
     inkscape:pageopacity="0.0"
     inkscape:pageshadow="2"
     inkscape:zoom="0.43213884"
     inkscape:cx="988.21231"
     inkscape:cy="132.52856"
     inkscape:document-units="px"
     inkscape:current-layer="g6206"
     showgrid="false"
     fit-margin-top="0"
     fit-margin-left="0"
     fit-margin-right="0"
     fit-margin-bottom="0"
     inkscape:window-width="1916"
     inkscape:window-height="1035"
     inkscape:window-x="4"
     inkscape:window-y="1"
     inkscape:window-maximized="1" />
  <metadata
     id="metadata5351">
    <rdf:RDF>
      <cc:Work
         rdf:about="">
        <dc:format>image/svg+xml</dc:format>
        <dc:type
           rdf:resource="http://purl.org/dc/dcmitype/StillImage" />
        <dc:title></dc:title>
      </cc:Work>
    </rdf:RDF>
  </metadata>
  <g
     inkscape:label="Layer 1"
     inkscape:groupmode="layer"
     id="layer1"
     transform="translate(926.41959,-306.02998)">
    <g
       id="g6206"
       transform="matrix(1.8939477,0,0,2.0152394,-146.41108,-310.75574)">
      <g
         id="g6336">
        <path
           style="fill:#d1c9c9;fill-opacity:1;fill-rule:evenodd;stroke:#000000;stroke-width:1px;stroke-linecap:round;stroke-linejoin:round;stroke-opacity:1"
           d="M 36.170509,358.23291 -63.728992,328.95203 -83.967253,356.51051 7.7508234,385.7914 25.836078,383.20779 Z"
           id="path5911"
           inkscape:connector-curvature="0" />
        <path
           style="fill:#373233;fill-opacity:1;fill-rule:evenodd;stroke:#000000;stroke-width:1px;stroke-linecap:round;stroke-linejoin:round;stroke-opacity:1"
           d="m -276.37862,543.766 -61.03154,28.28291 -50.11534,34.23721 -20.34385,22.82481 -3.47334,26.79433 4.96192,12.90098 7.93906,7.44287 9.42764,3.96953 18.85527,-0.99238 1.98477,-7.93906 -15.87813,1.98476 -12.90097,-6.45049 -6.45049,-12.90097 1.98476,-13.89336 7.93907,-13.89336 14.88574,-13.39717 22.32861,-17.3667 31.75625,-18.35908 38.70293,-16.87051 30.76387,-10.42002 z"
           id="path5937"
           inkscape:connector-curvature="0" />
        <path
           style="fill:#373233;fill-opacity:1;fill-rule:evenodd;stroke:#000000;stroke-width:1px;stroke-linecap:round;stroke-linejoin:round;stroke-opacity:1"
           d="m 13.397168,529.87264 18.359083,6.94668 18.359082,8.93145 19.351465,14.88574 21.336231,19.35146 24.313381,21.83243 16.37432,20.34385 15.87812,23.81718 5.45811,13.89336 0,14.88575 -8.93145,11.4124 -20.34385,5.9543 -22.8248,-0.4962 5.95429,10.91622 27.78672,-1.98477 17.8629,-4.96191 9.42763,-14.38956 1.48858,-23.32099 L 148.85743,627.62235 117.10117,588.91942 92.787795,568.57557 69.96299,548.72792 37.710548,528.88026 12.900977,520.9412 Z"
           id="path5993"
           inkscape:connector-curvature="0" />
        <path
           style="fill:#893d45;fill-opacity:1;fill-rule:evenodd;stroke:#000000;stroke-width:1px;stroke-linecap:round;stroke-linejoin:round;stroke-opacity:1"
           d="m 96.024089,401.29304 1.291804,9.04263 -31.003293,46.93554 -103.774913,158.46128 -11.195634,14.20984 -95.162883,-32.2951 -104.20552,-38.32351 -37.89291,-12.91804 -3.01421,-2.58361 6.02842,-9.47323 224.343274,82.24485 21.099463,-15.50164 L 19.80766,519.7084 91.287475,409.47447 Z"
           id="path5913"
           inkscape:connector-curvature="0" />
        <path
           style="fill:#ebe3e3;fill-opacity:1;fill-rule:evenodd;stroke:#000000;stroke-width:1px;stroke-linecap:round;stroke-linejoin:round;stroke-opacity:1"
           d="m 86.981462,365.55314 3.44481,3.0142 6.028419,27.98909 0.430601,7.32022 -39.615319,60.71478 -59.8535808,90.85688 -38.7541172,57.70057 -9.903829,11.62624 -62.867786,-21.96067 -0.86121,-11.19563 -29.28088,-11.19564 -19.37706,-5.16721 -4.30602,6.88962 -114.97054,-39.18472 -6.02842,-3.01421 0,-17.65465 0,-3.44481 201.090805,-157.60008 74.494025,33.1563 49.94975,-9.90383 z"
           id="path5909"
           inkscape:connector-curvature="0" />
        <path
           style="fill:#ebe3e3;fill-opacity:1;fill-rule:evenodd;stroke:#000000;stroke-width:1px;stroke-linecap:round;stroke-linejoin:round;stroke-opacity:1"
           d="m -127.45798,320.34 -6.88962,10.76503 -1.29181,9.04263 1.29181,15.07104 22.39126,-26.69728 -10.33443,-7.32022 z"
           id="path5907"
           inkscape:connector-curvature="0" />
        <path
           style="fill:#f3eeee;fill-opacity:1;fill-rule:evenodd;stroke:#000000;stroke-width:1px;stroke-linecap:round;stroke-linejoin:round;stroke-opacity:1"
           d="m -116.69295,306.56076 -11.19564,14.20984 5.16722,6.02842 -1.2918,6.45902 -87.84267,100.7607 -4.73661,1.72241 -6.45902,0 -5.16722,-0.86121 -29.71149,34.87871 -28.41968,43.92133 -2.15301,5.16722 31.8645,12.48743 150.27985,52.10276 50.810953,18.08526 5.167215,0 15.501647,-55.54757 29.2808881,-37.46231 -5.5978171,-4.30602 -0.843184,-2.54757 -6.907639,-3.91145 32.725699,-46.50494 46.50494,-67.6044 4.736614,-5.16722 4.736614,1.29181 1.722405,-1.72241 8.612026,3.01421 10.765033,-14.64044 -46.074339,-15.07105 -4.736614,6.45902 -7.320222,-2.153 -19.80766,27.55848 -2.583608,-1.72241 18.515856,-26.26668 -4.736614,-1.2918 -17.6546535,27.12788 -2.5836078,-0.8612 18.0852543,-26.69728 -4.736614,-1.72241 -19.3770585,25.40548 -2.5836078,-0.4306 19.8076593,-26.26668 -5.5978165,-1.2918 -18.946457,26.69728 -2.1530065,-1.29181 18.9464571,-25.40547 -5.5978169,-1.72241 -18.9464572,26.26668 -2.583608,-1.72241 20.2382613,-25.83607 -5.5978169,-1.29181 -18.5158554,25.83608 -3.014209,-1.7224 18.9464566,-24.54428 -4.7366146,-1.7224 -18.946457,25.83607 -2.153006,-0.8612 18.946457,-25.40547 -5.597817,-1.29181 -18.515856,25.40548 -2.583608,-0.8612 19.377059,-24.97488 -5.167216,-1.2918 -19.377058,24.97487 -3.014209,-0.8612 20.668862,-25.40548 -6.459019,-1.7224 -18.085255,25.83608 -2.583608,-0.86121 19.80766,-24.97487 -4.736614,-1.72241 -19.377059,24.97488 -2.583607,-1.29181 19.807659,-24.11367 -6.028418,-1.7224 -18.946457,25.83607 -2.153006,-1.7224 19.807659,-24.54428 -5.597817,-2.153 -19.377058,26.26668 -2.583608,-1.29181 19.377059,-25.83607 -9.042628,-3.01421 -6.028418,-7.75083 z"
           id="path5905"
           inkscape:connector-curvature="0"
           sodipodi:nodetypes="cccccccccccccccccccccccccccccccccccccccccccccccccccccccccccccccccccccccccccccccccccc" />
        <path
           style="fill:none;fill-rule:evenodd;stroke:#000000;stroke-width:1px;stroke-linecap:round;stroke-linejoin:round;stroke-opacity:1"
           d="m -122.72137,424.11491 -55.11697,69.32681 c 0,0 62.43719,23.25247 64.1596,21.96067 1.7224,-1.29181 51.672153,-70.61862 51.672153,-70.61862 z"
           id="path5915"
           inkscape:connector-curvature="0" />
        <path
           style="fill:#893d45;fill-opacity:1;fill-rule:evenodd;stroke:#000000;stroke-width:1px;stroke-linecap:round;stroke-linejoin:round;stroke-opacity:1"
           d="m -95.593488,433.72741 -22.821872,31.29463 13.34864,6.02841 19.807663,-34.0175 z"
           id="path5917"
           inkscape:connector-curvature="0"
           sodipodi:nodetypes="ccccc" />
        <path
           style="fill:#893d45;fill-opacity:1;fill-rule:evenodd;stroke:#000000;stroke-width:1px;stroke-linecap:round;stroke-linejoin:round;stroke-opacity:1"
           d="m -164.10685,476.122 62.05434,23.34814 5.597819,-6.88962 -0.430601,-31.4339 -53.394558,-17.22405 -9.04263,25.83608 z"
           id="path5919"
           inkscape:connector-curvature="0"
           sodipodi:nodetypes="ccccccc" />
        <path
           style="fill:#935158;fill-opacity:1;fill-rule:evenodd;stroke:#000000;stroke-width:1px;stroke-linecap:round;stroke-linejoin:round;stroke-opacity:1"
           d="m -150.71045,443.92257 3.87541,-6.45902 54.255761,18.08526 6.889621,22.39126 -10.334431,14.20985 -1.291804,-31.0033 z"
           id="path5921"
           inkscape:connector-curvature="0" />
        <path
           style="fill:none;fill-rule:evenodd;stroke:#000000;stroke-width:1px;stroke-linecap:round;stroke-linejoin:round;stroke-opacity:1"
           d="m 69.75741,379.76298 -3.014209,39.61532 -66.9675107,91.97842 -5.0870506,-2.46741 4.84472281,2.4494 3.91144789,25.59374 77.5082336,-115.83175 1.722405,-18.94645 -2.153006,-12.05684 -3.444811,-9.47323 -5.167215,-3.44481 z"
           id="path5923"
           inkscape:connector-curvature="0"
           sodipodi:nodetypes="cccccccccccc" />
        <path
           style="fill:#893d45;fill-opacity:1;fill-rule:evenodd;stroke:#000000;stroke-width:1px;stroke-linecap:round;stroke-linejoin:round;stroke-opacity:1"
           d="m -81.589937,497.05679 -14.003551,18.3456 26.078405,9.41917 11.383908,-17.6006 z"
           id="path5925"
           inkscape:connector-curvature="0"
           sodipodi:nodetypes="ccccc" />
        <path
           style="fill:#893d45;fill-opacity:1;fill-rule:evenodd;stroke:#000000;stroke-width:1px;stroke-linecap:round;stroke-linejoin:round;stroke-opacity:1"
           d="m -197.21539,460.71602 -13.34864,15.50165 22.82186,9.47323 13.34864,-16.79345 z"
           id="path5927"
           inkscape:connector-curvature="0" />
        <path
           style="fill:#935158;fill-opacity:1;fill-rule:evenodd;stroke:#000000;stroke-width:1px;stroke-linecap:round;stroke-linejoin:round;stroke-opacity:1"
           d="m -200.6602,467.17504 -4.73662,5.16722 21.53007,8.61202 3.87541,-6.02841 z"
           id="path5929"
           inkscape:connector-curvature="0" />
        <path
           style="fill:#893d45;fill-opacity:1;fill-rule:evenodd;stroke:#000000;stroke-width:1px;stroke-linecap:round;stroke-linejoin:round;stroke-opacity:1"
           d="m -256.63837,482.67669 -9.04263,20.23826 211.855838,74.06342 8.612026,-23.25247 -205.396824,-69.75741 z"
           id="path5931"
           inkscape:connector-curvature="0" />
        <path
           style="fill:#893d45;fill-opacity:1;fill-rule:evenodd;stroke:#000000;stroke-width:1px;stroke-linecap:round;stroke-linejoin:round;stroke-opacity:1"
           d="m -161.90609,574.39476 -6.88962,6.88963 2.58361,9.90383 18.94646,7.32022 31.43389,9.90383 3.01421,-9.04263 -1.2918,-9.04263 -24.11368,-8.61202 -13.77924,-4.73662 z"
           id="path5933"
           inkscape:connector-curvature="0" />
        <path
           style="fill:#893d45;fill-opacity:1;fill-rule:evenodd;stroke:#000000;stroke-width:1px;stroke-linecap:round;stroke-linejoin:round;stroke-opacity:1"
           d="M -139.94542,356.94111 -161.90609,384.49959 18.085254,440.47776 37.031712,409.47447 -134.3476,359.95532 Z"
           id="path5935"
           inkscape:connector-curvature="0" />
        <path
           style="fill:#7f3f46;fill-opacity:1;fill-rule:evenodd;stroke:#000000;stroke-width:1px;stroke-linecap:round;stroke-linejoin:round;stroke-opacity:1"
           d="m -381.5712,707.01298 -3.47334,13.89336 3.96953,10.42002 9.42764,4.46572 36.71816,0 185.57559,-2.48096 5.9543,-5.95429 0,-22.32862 2.48096,-40.1915 -4.46573,-10.42002 -6.88732,-8.50887 -169.75682,38.28035 z"
           id="path5941"
           inkscape:connector-curvature="0"
           sodipodi:nodetypes="ccccccccccccc" />
        <path
           style="fill:#893d45;fill-opacity:1;fill-rule:evenodd;stroke:#000000;stroke-width:1px;stroke-linecap:round;stroke-linejoin:round;stroke-opacity:1"
           d="m -370.65499,649.45477 -11.90859,59.54297 c 0,0 4.96191,5.45811 6.94668,5.45811 1.98476,0 223.28613,-2.97715 223.28613,-2.97715 l 3.47334,-33.24482 -2.48095,-32.25245 -4.46573,-0.99238 -137.44502,1.98477 -72.44394,1.98476 z"
           id="path5939"
           inkscape:connector-curvature="0" />
        <path
           style="fill:#dcc5aa;fill-opacity:1;fill-rule:evenodd;stroke:#000000;stroke-width:1px;stroke-linecap:round;stroke-linejoin:round;stroke-opacity:1"
           d="m -366.68546,652.92811 -9.42763,50.11534 0,5.95429 217.82803,-0.49619 0,-14.88574 1.98476,-17.3667 -3.47334,-1.48857 -125.53643,0 0.99239,-21.33624 -3.47334,-2.48095 -67.97823,1.48857 z"
           id="path5943"
           inkscape:connector-curvature="0" />
        <path
           style="fill:none;fill-rule:evenodd;stroke:#000000;stroke-width:1px;stroke-linecap:round;stroke-linejoin:round;stroke-opacity:1"
           d="m -375.12071,697.08915 216.33946,-2.97715 0,3.47334 -217.33184,2.97715 z"
           id="path5995"
           inkscape:connector-curvature="0" />
        <path
           style="fill:#262323;fill-opacity:1;fill-rule:evenodd;stroke:#000000;stroke-width:1px;stroke-linecap:round;stroke-linejoin:round;stroke-opacity:1"
           d="m -334.43302,671.2872 3.96954,1.48857 0.49619,8.43525 7.93906,6.45049 2.48096,5.45811 -11.41241,1.48857 -4.46572,10.42002 -14.88574,-0.49619 2.97715,-11.4124 -12.90098,0 -0.99238,-2.97715 c 0,0 3.96953,-5.45811 5.95429,-4.96191 1.98477,0.49619 20.84004,-13.89336 20.84004,-13.89336 z"
           id="path5949"
           inkscape:connector-curvature="0" />
        <path
           style="fill:#893d45;fill-opacity:1;fill-rule:evenodd;stroke:#000000;stroke-width:1px;stroke-linecap:round;stroke-linejoin:round;stroke-opacity:1"
           d="m -290.27198,686.66913 -11.90859,1.98477 -3.47334,3.96953 -0.99239,4.96191 4.96192,5.45811 12.40478,0.99238 34.7334,0.49619 12.40479,-3.47334 2.97715,-5.9543 -3.47334,-6.45048 -5.9543,-3.47334 z"
           id="path5945"
           inkscape:connector-curvature="0" />
        <path
           style="fill:#373233;fill-opacity:1;fill-rule:evenodd;stroke:#000000;stroke-width:1px;stroke-linecap:round;stroke-linejoin:round;stroke-opacity:1"
           d="m -347.83018,670.791 -2.48096,8.93145 -11.4124,0.99238 -0.4962,12.40479 12.90098,-1.48858 -1.48857,12.90098 16.37431,-0.99238 1.98477,-11.9086 12.40479,0.4962 0.49619,-12.40479 -13.89336,0 0.99238,-8.93145 z"
           id="path5947"
           inkscape:connector-curvature="0" />
        <path
           style="fill:#373233;fill-opacity:1;fill-rule:evenodd;stroke:#000000;stroke-width:1px;stroke-linecap:round;stroke-linejoin:round;stroke-opacity:1"
           d="m -292.25675,692.62343 -6.45048,0.49619 0,4.96191 8.43525,1.98477 10.91621,-1.98477 -1.48857,-4.46572 -5.45811,-0.25166 z"
           id="path5951"
           inkscape:connector-curvature="0"
           sodipodi:nodetypes="cccccccc" />
        <path
           style="fill:#262323;fill-opacity:1;fill-rule:evenodd;stroke:#000000;stroke-width:1px;stroke-linecap:round;stroke-linejoin:round;stroke-opacity:1"
           d="m -224.77471,695.10438 5.95429,6.94668 4.96192,-0.99238 6.94668,-0.99238 2.48096,-3.96953 0,-2.97715 -3.47334,-4.46572 z"
           id="path5957"
           inkscape:connector-curvature="0" />
        <path
           style="fill:#373233;fill-opacity:1;fill-rule:evenodd;stroke:#000000;stroke-width:1px;stroke-linecap:round;stroke-linejoin:round;stroke-opacity:1"
           d="m -263.97383,693.11962 7.44287,-0.49619 5.4581,0.49619 2.48096,1.48857 -1.48857,3.47334 -6.94668,0.49619 -6.45049,0.4962 -2.48096,-2.97715 0,-1.48858 z"
           id="path5953"
           inkscape:connector-curvature="0" />
        <path
           style="fill:#262323;fill-opacity:1;fill-rule:evenodd;stroke:#000000;stroke-width:1px;stroke-linecap:round;stroke-linejoin:round;stroke-opacity:1"
           d="m -192.52227,697.08915 5.9543,4.96191 6.94668,-0.99238 4.96191,-1.98476 1.98477,-3.96954 -0.49619,-4.96191 -1.98477,-1.48857 -6.45049,1.48857 z"
           id="path5961"
           inkscape:connector-curvature="0" />
        <path
           style="fill:#373233;fill-opacity:1;fill-rule:evenodd;stroke:#000000;stroke-width:1px;stroke-linecap:round;stroke-linejoin:round;stroke-opacity:1"
           d="m -215.84327,684.68436 -7.44287,2.97715 -3.47334,4.46573 2.48096,5.4581 8.43525,2.48096 5.9543,-1.48858 3.96953,-3.96953 0,-3.96953 -2.48096,-2.97715 -3.96953,-1.98476 z"
           id="path5955"
           inkscape:connector-curvature="0" />
        <path
           style="fill:#7f3f46;fill-opacity:1;fill-rule:evenodd;stroke:#000000;stroke-width:1px;stroke-linecap:round;stroke-linejoin:round;stroke-opacity:1"
           d="m -113.13164,676.7104 -7.44287,14.92064 2.48095,42.17627 1.48858,19.35147 9.42763,5.9543 5.9543,2.48095 224.77471,-5.4581 2.48096,-10.42002 -2.13768,-14.36771 z"
           id="path5965"
           inkscape:connector-curvature="0"
           sodipodi:nodetypes="cccccccccc" />
        <path
           style="fill:#373233;fill-opacity:1;fill-rule:evenodd;stroke:#000000;stroke-width:1px;stroke-linecap:round;stroke-linejoin:round;stroke-opacity:1"
           d="m -185.0794,683.69198 -6.94668,2.97715 -2.97715,4.96191 1.98477,4.96192 5.9543,3.96953 5.95429,-0.99238 5.45811,-2.97715 0.49619,-6.94668 -1.98477,-2.97715 -2.97714,-1.98477 z"
           id="path5959"
           inkscape:connector-curvature="0" />
        <path
           style="fill:#893d45;fill-opacity:1;fill-rule:evenodd;stroke:#000000;stroke-width:1px;stroke-linecap:round;stroke-linejoin:round;stroke-opacity:1"
           d="m -93.283987,669.79862 -16.870503,0.99238 -4.96192,8.43526 0.99238,23.321 1.48858,35.22959 7.44287,2.48095 78.398243,-1.48857 142.903127,-3.47334 8.43526,-1.48858 -10.91622,-61.52773 -4.96191,-4.96192 -3.47334,-0.99238 -109.1621113,3.47334 -54.0848647,0.49619 z"
           id="path5963"
           inkscape:connector-curvature="0" />
        <path
           sodipodi:nodetypes="cccccccccccccccccccc"
           style="fill:#dcc5aa;fill-opacity:1;fill-rule:evenodd;stroke:#000000;stroke-width:1px;stroke-linecap:round;stroke-linejoin:round;stroke-opacity:1"
           d="m -109.6583,676.24911 2.48095,53.58867 1.98477,5.45811 2.97715,-0.49619 59.542968,0.49619 156.300292,-2.97715 2.97715,-1.98477 -6.94668,-34.73339 -124.047851,3.96953 -6.94668,-0.49619 -2.977148,-1.48858 -2.885147,-23.90264 -20.932042,0.58164 0,9.42764 -18.855273,1.48858 -18.855274,-0.4962 0,-3.47334 -1.488575,-4.46572 -1.984765,-0.99238 z"
           id="path5967"
           inkscape:connector-curvature="0" />
        <path
           style="fill:none;fill-rule:evenodd;stroke:#000000;stroke-width:1px;stroke-linecap:round;stroke-linejoin:round;stroke-opacity:1"
           d="m -107.67354,723.38729 0,2.97715 222.30336,-5.85313 -1.38741,-4.0707 z"
           id="path5997"
           inkscape:connector-curvature="0"
           sodipodi:nodetypes="ccccc" />
        <path
           style="fill:#373233;fill-opacity:1;fill-rule:evenodd;stroke:#000000;stroke-width:1px;stroke-linecap:round;stroke-linejoin:round;stroke-opacity:1"
           d="m -83.360158,678.73007 0.496191,2.48095 32.252442,-0.99238 -1.488574,-0.99238 z"
           id="path5969"
           inkscape:connector-curvature="0" />
        <path
           style="fill:#262323;fill-opacity:1;fill-rule:evenodd;stroke:#000000;stroke-width:1px;stroke-linecap:round;stroke-linejoin:round;stroke-opacity:1"
           d="m -98.742092,714.95204 1.488574,4.46572 13.89336,-0.49619 1.488574,12.90098 12.404786,-0.99238 2.977148,-0.4962 1.488574,-11.90859 12.900977,0.49619 0.496192,-9.92383 -1.984766,-1.48857 -13.89336,1.48857 -0.496191,-8.43525 0.496191,-2.97715 -1.488574,-0.49619 -10.42002,5.45811 z"
           id="path5977"
           inkscape:connector-curvature="0" />
        <path
           style="fill:#373233;fill-opacity:1;fill-rule:evenodd;stroke:#000000;stroke-width:1px;stroke-linecap:round;stroke-linejoin:round;stroke-opacity:1"
           d="m -81.375393,676.24911 0.992383,6.94668 7.939063,-1.48857 0.496191,-5.45811 z"
           id="path5971"
           inkscape:connector-curvature="0" />
        <path
           style="fill:none;fill-rule:evenodd;stroke:#692f2f;stroke-width:1px;stroke-linecap:round;stroke-linejoin:round;stroke-opacity:1"
           d="m -21.336231,675.75292 -0.496191,21.83242 c 0,0 30.2676761,-1.48857 32.252442,-0.49619 1.984765,0.99238 14.885742,0 14.885742,0 l -2.480957,-22.82481 -14.3895509,0.4962 z"
           id="path5973"
           inkscape:connector-curvature="0" />
        <path
           style="fill:#373233;fill-opacity:1;fill-rule:evenodd;stroke:#000000;stroke-width:1px;stroke-linecap:round;stroke-linejoin:round;stroke-opacity:1"
           d="m -86.337307,696.09677 -0.496191,9.42763 -11.908594,0 -1.488578,3.96953 1.488578,8.93145 14.885742,-1.48857 0.496192,11.4124 14.389551,-0.49619 0.992383,-12.40479 11.908594,-0.49619 0.496191,-9.42764 -12.900977,0.4962 0.496192,-10.91622 z"
           id="path5975"
           inkscape:connector-curvature="0" />
        <path
           style="fill:#262323;fill-opacity:1;fill-rule:evenodd;stroke:#000000;stroke-width:1px;stroke-linecap:round;stroke-linejoin:round;stroke-opacity:1"
           d="m 39.47037,720.81655 12.133537,7.03647 11.412403,-1.48858 2.480957,-2.48095 1.488574,-6.45049 -5.458105,-3.96953 -11.550378,6.81247 z"
           id="path5985"
           inkscape:connector-curvature="0"
           sodipodi:nodetypes="cccccccc" />
        <path
           style="fill:#373233;fill-opacity:1;fill-rule:evenodd;stroke:#000000;stroke-width:1px;stroke-linecap:round;stroke-linejoin:round;stroke-opacity:1"
           d="m 1.9847657,700.56249 -3.47334,3.47334 6.9466799,0 z"
           id="path5979"
           inkscape:connector-curvature="0" />
        <path
           style="fill:#262323;fill-opacity:1;fill-rule:evenodd;stroke:#000000;stroke-width:1px;stroke-linecap:round;stroke-linejoin:round;stroke-opacity:1"
           d="m 75.917287,722.39491 7.939063,5.45811 6.450488,-1.98477 6.450488,-2.48096 0.992383,-3.96953 -0.992383,-6.45049 -3.653858,-4.37499 z"
           id="path5989"
           inkscape:connector-curvature="0"
           sodipodi:nodetypes="cccccccc" />
        <path
           style="fill:#373233;fill-opacity:1;fill-rule:evenodd;stroke:#000000;stroke-width:1px;stroke-linecap:round;stroke-linejoin:round;stroke-opacity:1"
           d="m -79.886818,688.6539 26.298145,2.48095 0.992383,-3.47334 z"
           id="path5981"
           inkscape:connector-curvature="0" />
        <path
           style="fill:#373233;fill-opacity:1;fill-rule:evenodd;stroke:#000000;stroke-width:1px;stroke-linecap:round;stroke-linejoin:round;stroke-opacity:1"
           d="m 49.619142,708.00536 -8.435254,4.96191 -1.488575,2.97715 -0.675769,4.4213 11.591981,5.99872 12.404785,-1.48857 1.488574,-5.9543 0,-4.46572 -3.47334,-2.97715 -3.47334,-1.98477 z"
           id="path5983"
           inkscape:connector-curvature="0"
           sodipodi:nodetypes="ccccccccccc" />
        <path
           style="fill:#373233;fill-opacity:1;fill-rule:evenodd;stroke:#000000;stroke-width:1px;stroke-linecap:round;stroke-linejoin:round;stroke-opacity:1"
           d="m 81.871584,708.00536 -8.435254,6.45049 0,5.4581 4.961914,3.96954 6.450488,2.48095 6.94668,-1.48857 2.480957,-3.47334 0.496192,-3.47334 c 0,0 0.496191,-2.48096 0,-4.46572 -0.496192,-1.98477 -0.992383,-4.46573 -0.992383,-4.46573 l -3.47334,-1.48857 z"
           id="path5987"
           inkscape:connector-curvature="0" />
        <path
           style="fill:#373233;fill-opacity:1;fill-rule:evenodd;stroke:#000000;stroke-width:1px;stroke-linecap:round;stroke-linejoin:round;stroke-opacity:1"
           d="m -106.68115,678.73007 0.99238,10.91621 15.381932,-0.49619 0.496191,-10.91621 z"
           id="path5999"
           inkscape:connector-curvature="0" />
        <path
           style="fill:#373233;fill-opacity:1;fill-rule:evenodd;stroke:#000000;stroke-width:1px;stroke-linecap:round;stroke-linejoin:round;stroke-opacity:1"
           d="m -363.70831,654.91288 -2.48096,10.91621 14.88575,0 1.98476,-10.91621 z"
           id="path6001"
           inkscape:connector-curvature="0" />
        <path
           style="fill:none;fill-rule:evenodd;stroke:#454040;stroke-width:1px;stroke-linecap:round;stroke-linejoin:round;stroke-opacity:1"
           d="m -49.535533,474.91807 -3.556949,4.34305 -6.450488,-2.97715 6.450488,12.90098 17.3667,-3.47334 -6.450489,-2.97715 3.144366,-4.13675 z"
           id="path6003"
           inkscape:connector-curvature="0"
           sodipodi:nodetypes="cccccccc" />
        <path
           style="fill:none;fill-rule:evenodd;stroke:#454040;stroke-width:1px;stroke-linecap:round;stroke-linejoin:round;stroke-opacity:1"
           d="m -177.14034,433.85687 -4.96191,4.71655 -7.93906,-3.96953 6.94668,13.39717 18.35908,-4.46572 -6.94668,-3.47334 2.97715,-2.97715 z"
           id="path6005"
           inkscape:connector-curvature="0"
           sodipodi:nodetypes="cccccccc" />
        <path
           style="fill:none;fill-rule:evenodd;stroke:#454040;stroke-width:1px;stroke-linecap:round;stroke-linejoin:round;stroke-opacity:1"
           d="m -45.153419,449.48963 -15.381934,18.85528 34.237208,11.90859 13.89336,-18.85527 z"
           id="path6007"
           inkscape:connector-curvature="0" />
        <path
           style="fill:none;fill-rule:evenodd;stroke:#454040;stroke-width:1px;stroke-linecap:round;stroke-linejoin:round;stroke-opacity:1"
           d="m -172.17842,409.29813 -13.89336,17.86289 30.76387,10.91621 16.8705,-19.35147 z"
           id="path6009"
           inkscape:connector-curvature="0" />
        <path
           style="fill:none;fill-rule:evenodd;stroke:#000000;stroke-width:1px;stroke-linecap:round;stroke-linejoin:round;stroke-opacity:1"
           d="m -158.93156,469.46135 62.376771,22.72085"
           id="path6011"
           inkscape:connector-curvature="0"
           sodipodi:nodetypes="cc" />
        <g
           transform="matrix(1.3857489,0,-0.16746159,0.72163145,0,0)"
           style="font-style:normal;font-weight:normal;font-size:15.21642208px;line-height:125%;font-family:sans-serif;letter-spacing:0px;word-spacing:0px;fill:#dcc5aa;fill-opacity:1;stroke:none;stroke-width:1px;stroke-linecap:butt;stroke-linejoin:miter;stroke-opacity:1"
           id="text6013">
          <path
             d="m -145.84636,920.26257 c -4.98404,0.23473 -4.19372,-0.0548 -2.91995,-3.30261 0.0703,-3.1401 0.41476,-6.55432 -1.44883,-7.7605 4.98405,-0.23473 4.19372,0.0548 2.91995,3.30262 0.003,3.40754 -0.51991,6.23037 1.44883,7.76049 z"
             id="path6022"
             inkscape:connector-curvature="0" />
        </g>
        <g
           transform="matrix(1.2217697,0,-0.06621865,0.81848486,0,0)"
           style="font-style:normal;font-weight:normal;font-size:12.43096352px;line-height:125%;font-family:sans-serif;letter-spacing:0px;word-spacing:0px;fill:#dcc5aa;fill-opacity:1;stroke:none;stroke-width:1px;stroke-linecap:butt;stroke-linejoin:miter;stroke-opacity:1"
           id="text6017">
          <path
             d="m -35.829977,839.64923 c -5.590958,0.55625 -1.603336,-0.84359 -2.385434,-4.72583 0.497595,-3.72705 -3.022306,-4.70034 2.385434,-4.31211 -1.905913,1.19373 -0.993831,5.20546 -1.183613,8.11533 0.975657,0.0271 1.445412,-0.35565 1.183613,0.92261 z"
             id="path6025"
             inkscape:connector-curvature="0" />
          <path
             d="m -30.609944,839.64923 c -5.590957,0.55625 -1.603335,-0.84359 -2.385434,-4.72583 0.497595,-3.72705 -3.022305,-4.70034 2.385434,-4.31211 -1.905912,1.19374 -0.99383,5.20547 -1.183612,8.11533 0.975657,0.0271 1.445411,-0.35565 1.183612,0.92261 z"
             id="path6027"
             inkscape:connector-curvature="0" />
        </g>
        <g
           transform="scale(1.292179,0.77388658)"
           style="font-style:normal;font-weight:normal;font-size:5.58178329px;line-height:125%;font-family:sans-serif;letter-spacing:0px;word-spacing:0px;fill:#000000;fill-opacity:1;stroke:none;stroke-width:1px;stroke-linecap:butt;stroke-linejoin:miter;stroke-opacity:1"
           id="text6035">
          <path
             d="m -230.50575,880.29254 c 0.36788,2.56549 -5.11199,0.0679 -1.87877,0.84486 3.52097,-1.3293 -3.84946,-1.82153 -0.0358,-3.82481 1.4072,-0.74399 2.44633,1.31492 0.36535,0.64997 -3.11102,0.85974 2.02802,1.05931 1.54919,2.32998 z"
             id="path6040"
             inkscape:connector-curvature="0" />
          <path
             d="m -226.74459,877.87231 c -2.49214,-1.38203 -1.04977,6.05092 -1.96188,2.20548 1.12991,-1.92499 -2.92666,-2.88895 -0.12402,-2.70483 0.51754,0.30818 2.32422,-0.53057 2.0859,0.49935 z"
             id="path6042"
             inkscape:connector-curvature="0" />
          <path
             d="m -222.99433,881.45087 c -1.07065,-1.42263 -2.75355,-1.3489 -3.41974,-0.22929 0.0787,-1.32628 0.86286,-2.53388 1.22301,-3.82895 1.58845,0.22579 1.44801,2.81999 2.19673,4.05824 z m -1.13925,-1.59441 c -0.35524,-0.78357 -0.70964,-2.96642 -1.06655,-1.0013 -0.73058,1.50973 -0.11728,0.87605 1.06655,1.0013 z"
             id="path6044"
             inkscape:connector-curvature="0" />
          <path
             d="m -219.02058,881.45087 c -1.35056,-0.16695 -2.87551,-3.10092 -3.05655,-0.10764 -0.97369,-1.67005 -0.42787,-5.83192 2.12275,-3.31184 0.11433,1.51335 -0.82523,2.23258 0.9338,3.41948 z m -1.2619,-2.91627 c -1.9858,-2.84968 -2.01412,3.2777 0,0 z"
             id="path6046"
             inkscape:connector-curvature="0" />
          <path
             d="m -215.60283,877.87231 c -2.49214,-1.38203 -1.04977,6.05092 -1.96188,2.20548 1.12991,-1.92499 -2.92666,-2.88895 -0.12402,-2.70483 0.51754,0.30818 2.32422,-0.53057 2.0859,0.49935 z"
             id="path6048"
             inkscape:connector-curvature="0" />
          <path
             d="m -206.21627,880.29254 c 0.36788,2.56549 -5.11199,0.0679 -1.87877,0.84486 3.52097,-1.3293 -3.84946,-1.82153 -0.0358,-3.82481 1.40719,-0.74398 2.44634,1.3149 0.36534,0.64997 -3.11101,0.85975 2.02802,1.05931 1.5492,2.32998 z"
             id="path6050"
             inkscape:connector-curvature="0" />
          <path
             d="m -202.67587,881.45087 c -0.79423,-0.27246 -2.72848,0.59509 -2.6737,-0.52638 0,-1.17729 0,-2.35457 0,-3.53186 0.83444,0.003 4.01606,-0.17043 1.69162,0.51184 -2.99644,0.32877 0.68905,1.15932 0.70779,1.49449 -2.53179,-0.88651 -2.18363,2.63905 0.14052,1.58058 l 0.17037,0.16145 -0.0366,0.30988 4e-5,0 z"
             id="path6052"
             inkscape:connector-curvature="0" />
          <path
             d="m -199.24995,881.45087 c -0.82763,-0.26211 -2.82204,0.64255 -2.5674,-0.70184 0,-1.1188 0,-2.2376 0,-3.3564 1.35227,1.03355 -0.54026,4.51548 2.51809,3.70456 l 0.0493,0.35368 0,0 z"
             id="path6054"
             inkscape:connector-curvature="0" />
          <path
             d="m -196.03661,881.45087 c -0.79422,-0.27247 -2.72847,0.59509 -2.67369,-0.52638 0,-1.17729 0,-2.35457 0,-3.53186 0.83443,0.003 4.01605,-0.17043 1.69161,0.51184 -2.99643,0.32876 0.68905,1.15932 0.70778,1.49449 -2.53187,-0.88648 -2.18352,2.63908 0.14062,1.58058 l 0.17037,0.16145 -0.0366,0.30988 -5e-5,0 z"
             id="path6056"
             inkscape:connector-curvature="0" />
          <path
             d="m -192.04378,881.15651 c -3.05136,2.38724 -5.01515,-4.50772 -1.03941,-3.84808 2.82968,1.34991 -2.54633,-0.54663 -1.66097,2.31838 -0.33478,2.7703 2.80707,0.22186 2.70038,1.5297 z"
             id="path6058"
             inkscape:connector-curvature="0" />
          <path
             d="m -188.38073,877.87231 c -2.49215,-1.38204 -1.04978,6.05093 -1.96188,2.20548 1.12992,-1.925 -2.92668,-2.88895 -0.12403,-2.70483 0.52067,0.31563 2.32982,-0.54391 2.08591,0.49935 z"
             id="path6060"
             inkscape:connector-curvature="0" />
        </g>
        <path
           style="fill:none;fill-rule:evenodd;stroke:#692f2f;stroke-width:1px;stroke-linecap:butt;stroke-linejoin:miter;stroke-opacity:1"
           d="m -18.131868,678.46111 c -0.09157,0.22893 -0.164454,0.46627 -0.274725,0.68681 -0.02048,0.0409 0.04579,-0.13736 0,-0.13736 -0.208438,0 -0.109999,0.19263 -0.137363,0.27472 -0.233265,0.6998 -0.137363,-0.17251 -0.137363,0.27473 0,0.54945 -0.04579,-0.22894 0.137363,0.13736 0.04095,0.0819 -0.04095,0.19282 0,0.27472 0.02048,0.041 0.09641,-0.0205 0.137363,0 0.164835,0.0824 0.247252,0.32968 0.412088,0.41209 0.04095,0.0205 0.104985,-0.0324 0.137362,0 0.03238,0.0324 -0.03238,0.10499 0,0.13737 0.01374,0.0137 0.398352,0.0137 0.412088,0 0.03238,-0.0324 -0.03238,-0.10499 0,-0.13737 0.06868,-0.0687 0.343407,0.0687 0.412088,0 0.03238,-0.0324 -0.03238,-0.10498 0,-0.13736 0.06475,-0.0648 0.209972,0.0648 0.274725,0 0.06475,-0.0648 -0.04095,-0.19282 0,-0.27473 0.02896,-0.0579 0.108404,-0.0794 0.137363,-0.13736 0.01539,-0.0308 0,-0.51681 0,-0.54945 0,-0.0458 0.04579,0.13736 0,0.13736 -0.04579,0 -0.03238,-0.10498 0,-0.13736 0.03238,-0.0324 0.104986,0.0324 0.137363,0 0.0055,-0.006 0,-0.499 0,-0.54945 0,-0.0458 0.03238,-0.10498 0,-0.13736 -0.03238,-0.0324 -0.09158,0 -0.137363,0 -0.09158,0 -0.18315,0 -0.274725,0 -0.04579,0 0.137362,-0.0458 0.137362,0 0,0.0458 -0.09641,0.0205 -0.137362,0 -0.05792,-0.029 -0.07945,-0.10841 -0.137363,-0.13736 -0.05009,-0.025 -1.045717,0 -1.098901,0 z"
           id="path6095"
           inkscape:connector-curvature="0" />
        <path
           inkscape:connector-curvature="0"
           id="path6097"
           d="m -18.406593,682.99408 c -0.09157,0.22893 -0.164454,0.46627 -0.274725,0.68681 -0.02048,0.0409 0.04579,-0.13736 0,-0.13736 -0.208438,0 -0.109999,0.19263 -0.137363,0.27472 -0.233265,0.6998 -0.137363,-0.17251 -0.137363,0.27473 0,0.54945 -0.04579,-0.22894 0.137363,0.13736 0.04095,0.0819 -0.04095,0.19282 0,0.27472 0.02048,0.041 0.09641,-0.0205 0.137363,0 0.164835,0.0824 0.247252,0.32968 0.412088,0.41209 0.04095,0.0205 0.104985,-0.0324 0.137362,0 0.03238,0.0324 -0.03238,0.10499 0,0.13737 0.01374,0.0137 0.398352,0.0137 0.412088,0 0.03238,-0.0324 -0.03238,-0.10499 0,-0.13737 0.06868,-0.0687 0.343407,0.0687 0.412088,0 0.03238,-0.0324 -0.03238,-0.10498 0,-0.13736 0.06475,-0.0648 0.209972,0.0648 0.274725,0 0.06475,-0.0648 -0.04095,-0.19282 0,-0.27473 0.02896,-0.0579 0.108404,-0.0794 0.137363,-0.13736 0.01539,-0.0308 0,-0.51681 0,-0.54945 0,-0.0458 0.04579,0.13736 0,0.13736 -0.04579,0 -0.03238,-0.10498 0,-0.13736 0.03238,-0.0324 0.104986,0.0324 0.137363,0 0.0055,-0.006 0,-0.499 0,-0.54945 0,-0.0458 0.03238,-0.10498 0,-0.13736 -0.03238,-0.0324 -0.09158,0 -0.137363,0 -0.09158,0 -0.18315,0 -0.274725,0 -0.04579,0 0.137362,-0.0458 0.137362,0 0,0.0458 -0.09641,0.0205 -0.137362,0 -0.05792,-0.029 -0.07945,-0.10841 -0.137363,-0.13736 -0.05009,-0.025 -1.045717,0 -1.098901,0 z"
           style="fill:none;fill-rule:evenodd;stroke:#692f2f;stroke-width:1px;stroke-linecap:butt;stroke-linejoin:miter;stroke-opacity:1" />
        <path
           style="fill:none;fill-rule:evenodd;stroke:#692f2f;stroke-width:1px;stroke-linecap:butt;stroke-linejoin:miter;stroke-opacity:1"
           d="m -18.26923,687.93913 c -0.09157,0.22893 -0.164454,0.46627 -0.274725,0.68681 -0.02048,0.0409 0.04579,-0.13736 0,-0.13736 -0.208438,0 -0.109999,0.19263 -0.137363,0.27472 -0.233265,0.6998 -0.137363,-0.17251 -0.137363,0.27473 0,0.54945 -0.04579,-0.22894 0.137363,0.13736 0.04095,0.0819 -0.04095,0.19282 0,0.27472 0.02048,0.041 0.09641,-0.0205 0.137363,0 0.164835,0.0824 0.247252,0.32968 0.412088,0.41209 0.04095,0.0205 0.104985,-0.0324 0.137362,0 0.03238,0.0324 -0.03238,0.10499 0,0.13737 0.01374,0.0137 0.398352,0.0137 0.412088,0 0.03238,-0.0324 -0.03238,-0.10499 0,-0.13737 0.06868,-0.0687 0.343407,0.0687 0.412088,0 0.03238,-0.0324 -0.03238,-0.10498 0,-0.13736 0.06475,-0.0648 0.209972,0.0648 0.274725,0 0.06475,-0.0648 -0.04095,-0.19282 0,-0.27473 0.02896,-0.0579 0.108404,-0.0794 0.137363,-0.13736 0.01539,-0.0308 0,-0.51681 0,-0.54945 0,-0.0458 0.04579,0.13736 0,0.13736 -0.04579,0 -0.03238,-0.10498 0,-0.13736 0.03238,-0.0324 0.104986,0.0324 0.137363,0 0.0055,-0.006 0,-0.499 0,-0.54945 0,-0.0458 0.03238,-0.10498 0,-0.13736 -0.03238,-0.0324 -0.09158,0 -0.137363,0 -0.09158,0 -0.18315,0 -0.274725,0 -0.04579,0 0.137362,-0.0458 0.137362,0 0,0.0458 -0.09641,0.0205 -0.137362,0 -0.05792,-0.029 -0.07945,-0.10841 -0.137363,-0.13736 -0.05009,-0.025 -1.045717,0 -1.098901,0 z"
           id="path6099"
           inkscape:connector-curvature="0" />
        <path
           inkscape:connector-curvature="0"
           id="path6101"
           d="m -18.131867,692.33473 c -0.09157,0.22893 -0.164454,0.46627 -0.274725,0.68681 -0.02048,0.0409 0.04579,-0.13736 0,-0.13736 -0.208438,0 -0.109999,0.19263 -0.137363,0.27472 -0.233265,0.6998 -0.137363,-0.17251 -0.137363,0.27473 0,0.54945 -0.04579,-0.22894 0.137363,0.13736 0.04095,0.0819 -0.04095,0.19282 0,0.27472 0.02048,0.041 0.09641,-0.0205 0.137363,0 0.164835,0.0824 0.247252,0.32968 0.412088,0.41209 0.04095,0.0205 0.104985,-0.0324 0.137362,0 0.03238,0.0324 -0.03238,0.10499 0,0.13737 0.01374,0.0137 0.398352,0.0137 0.412088,0 0.03238,-0.0324 -0.03238,-0.10499 0,-0.13737 0.06868,-0.0687 0.343407,0.0687 0.412088,0 0.03238,-0.0324 -0.03238,-0.10498 0,-0.13736 0.06475,-0.0648 0.209972,0.0648 0.274725,0 0.06475,-0.0648 -0.04095,-0.19282 0,-0.27473 0.02896,-0.0579 0.108404,-0.0794 0.137363,-0.13736 0.01539,-0.0308 0,-0.51681 0,-0.54945 0,-0.0458 0.04579,0.13736 0,0.13736 -0.04579,0 -0.03238,-0.10498 0,-0.13736 0.03238,-0.0324 0.104986,0.0324 0.137363,0 0.0055,-0.006 0,-0.499 0,-0.54945 0,-0.0458 0.03238,-0.10498 0,-0.13736 -0.03238,-0.0324 -0.09158,0 -0.137363,0 -0.09158,0 -0.18315,0 -0.274725,0 -0.04579,0 0.137362,-0.0458 0.137362,0 0,0.0458 -0.09641,0.0205 -0.137362,0 -0.05792,-0.029 -0.07945,-0.10841 -0.137363,-0.13736 -0.05009,-0.025 -1.045717,0 -1.098901,0 z"
           style="fill:none;fill-rule:evenodd;stroke:#692f2f;stroke-width:1px;stroke-linecap:butt;stroke-linejoin:miter;stroke-opacity:1" />
        <path
           inkscape:connector-curvature="0"
           id="path6103"
           d="m -12.087911,678.32375 c -0.09157,0.22893 -0.164454,0.46627 -0.274725,0.68681 -0.02048,0.0409 0.04579,-0.13736 0,-0.13736 -0.208438,0 -0.109999,0.19263 -0.137363,0.27472 -0.233265,0.6998 -0.137363,-0.17251 -0.137363,0.27473 0,0.54945 -0.04579,-0.22894 0.137363,0.13736 0.04095,0.0819 -0.04095,0.19282 0,0.27472 0.02048,0.041 0.09641,-0.0205 0.137363,0 0.164835,0.0824 0.247252,0.32968 0.412088,0.41209 0.04095,0.0205 0.104985,-0.0324 0.137362,0 0.03238,0.0324 -0.03238,0.10499 0,0.13737 0.01374,0.0137 0.398352,0.0137 0.412088,0 0.03238,-0.0324 -0.03238,-0.10499 0,-0.13737 0.06868,-0.0687 0.343407,0.0687 0.412088,0 0.03238,-0.0324 -0.03238,-0.10498 0,-0.13736 0.06475,-0.0648 0.209972,0.0648 0.274725,0 0.06475,-0.0648 -0.04095,-0.19282 0,-0.27473 0.02896,-0.0579 0.108404,-0.0794 0.137363,-0.13736 0.01539,-0.0308 0,-0.51681 0,-0.54945 0,-0.0458 0.04579,0.13736 0,0.13736 -0.04579,0 -0.03238,-0.10498 0,-0.13736 0.03238,-0.0324 0.104986,0.0324 0.137363,0 0.0055,-0.006 0,-0.499 0,-0.54945 0,-0.0458 0.03238,-0.10498 0,-0.13736 -0.03238,-0.0324 -0.09158,0 -0.137363,0 -0.09158,0 -0.18315,0 -0.274725,0 -0.04579,0 0.137362,-0.0458 0.137362,0 0,0.0458 -0.09641,0.0205 -0.137362,0 -0.05792,-0.029 -0.07945,-0.10841 -0.137363,-0.13736 -0.05009,-0.025 -1.045717,0 -1.098901,0 z"
           style="fill:none;fill-rule:evenodd;stroke:#692f2f;stroke-width:1px;stroke-linecap:butt;stroke-linejoin:miter;stroke-opacity:1" />
        <path
           style="fill:none;fill-rule:evenodd;stroke:#692f2f;stroke-width:1px;stroke-linecap:butt;stroke-linejoin:miter;stroke-opacity:1"
           d="m -12.362637,682.99408 c -0.09157,0.22893 -0.164454,0.46627 -0.274725,0.68681 -0.02048,0.0409 0.04579,-0.13736 0,-0.13736 -0.208438,0 -0.109999,0.19263 -0.137363,0.27472 -0.233265,0.6998 -0.137363,-0.17251 -0.137363,0.27473 0,0.54945 -0.04579,-0.22894 0.137363,0.13736 0.04095,0.0819 -0.04095,0.19282 0,0.27472 0.02048,0.041 0.09641,-0.0205 0.137363,0 0.164835,0.0824 0.247252,0.32968 0.412088,0.41209 0.04095,0.0205 0.104985,-0.0324 0.137362,0 0.03238,0.0324 -0.03238,0.10499 0,0.13737 0.01374,0.0137 0.398352,0.0137 0.412088,0 0.03238,-0.0324 -0.03238,-0.10499 0,-0.13737 0.06868,-0.0687 0.343407,0.0687 0.412088,0 0.03238,-0.0324 -0.03238,-0.10498 0,-0.13736 0.06475,-0.0648 0.209972,0.0648 0.274725,0 0.06475,-0.0648 -0.04095,-0.19282 0,-0.27473 0.02896,-0.0579 0.108404,-0.0794 0.137363,-0.13736 0.01539,-0.0308 0,-0.51681 0,-0.54945 0,-0.0458 0.04579,0.13736 0,0.13736 -0.04579,0 -0.03238,-0.10498 0,-0.13736 0.03238,-0.0324 0.104986,0.0324 0.137363,0 0.0055,-0.006 0,-0.499 0,-0.54945 0,-0.0458 0.03238,-0.10498 0,-0.13736 -0.03238,-0.0324 -0.09158,0 -0.137363,0 -0.09158,0 -0.18315,0 -0.274725,0 -0.04579,0 0.137362,-0.0458 0.137362,0 0,0.0458 -0.09641,0.0205 -0.137362,0 -0.05792,-0.029 -0.07945,-0.10841 -0.137363,-0.13736 -0.05009,-0.025 -1.045717,0 -1.098901,0 z"
           id="path6105"
           inkscape:connector-curvature="0" />
        <path
           inkscape:connector-curvature="0"
           id="path6107"
           d="m -12.499999,687.66441 c -0.09157,0.22893 -0.164454,0.46627 -0.274725,0.68681 -0.02048,0.0409 0.04579,-0.13736 0,-0.13736 -0.208438,0 -0.109999,0.19263 -0.137363,0.27472 -0.233265,0.6998 -0.137363,-0.17251 -0.137363,0.27473 0,0.54945 -0.04579,-0.22894 0.137363,0.13736 0.04095,0.0819 -0.04095,0.19282 0,0.27472 0.02048,0.041 0.09641,-0.0205 0.137363,0 0.164835,0.0824 0.247252,0.32968 0.412088,0.41209 0.04095,0.0205 0.104985,-0.0324 0.137362,0 0.03238,0.0324 -0.03238,0.10499 0,0.13737 0.01374,0.0137 0.398352,0.0137 0.412088,0 0.03238,-0.0324 -0.03238,-0.10499 0,-0.13737 0.06868,-0.0687 0.343407,0.0687 0.412088,0 0.03238,-0.0324 -0.03238,-0.10498 0,-0.13736 0.06475,-0.0648 0.209972,0.0648 0.274725,0 0.06475,-0.0648 -0.04095,-0.19282 0,-0.27473 0.02896,-0.0579 0.108404,-0.0794 0.137363,-0.13736 0.01539,-0.0308 0,-0.51681 0,-0.54945 0,-0.0458 0.04579,0.13736 0,0.13736 -0.04579,0 -0.03238,-0.10498 0,-0.13736 0.03238,-0.0324 0.104986,0.0324 0.137363,0 0.0055,-0.006 0,-0.499 0,-0.54945 0,-0.0458 0.03238,-0.10498 0,-0.13736 -0.03238,-0.0324 -0.09158,0 -0.137363,0 -0.09158,0 -0.18315,0 -0.274725,0 -0.04579,0 0.137362,-0.0458 0.137362,0 0,0.0458 -0.09641,0.0205 -0.137362,0 -0.05792,-0.029 -0.07945,-0.10841 -0.137363,-0.13736 -0.05009,-0.025 -1.045717,0 -1.098901,0 z"
           style="fill:none;fill-rule:evenodd;stroke:#692f2f;stroke-width:1px;stroke-linecap:butt;stroke-linejoin:miter;stroke-opacity:1" />
        <path
           style="fill:none;fill-rule:evenodd;stroke:#692f2f;stroke-width:1px;stroke-linecap:butt;stroke-linejoin:miter;stroke-opacity:1"
           d="m -11.950548,692.4721 c -0.09157,0.22893 -0.164454,0.46627 -0.274725,0.68681 -0.02048,0.0409 0.04579,-0.13736 0,-0.13736 -0.208438,0 -0.109999,0.19263 -0.137363,0.27472 -0.233265,0.6998 -0.137363,-0.17251 -0.137363,0.27473 0,0.54945 -0.04579,-0.22894 0.137363,0.13736 0.04095,0.0819 -0.04095,0.19282 0,0.27472 0.02048,0.041 0.09641,-0.0205 0.137363,0 0.164835,0.0824 0.247252,0.32968 0.412088,0.41209 0.04095,0.0205 0.104985,-0.0324 0.137362,0 0.03238,0.0324 -0.03238,0.10499 0,0.13737 0.01374,0.0137 0.398352,0.0137 0.412088,0 0.03238,-0.0324 -0.03238,-0.10499 0,-0.13737 0.06868,-0.0687 0.343407,0.0687 0.412088,0 0.03238,-0.0324 -0.03238,-0.10498 0,-0.13736 0.06475,-0.0648 0.209972,0.0648 0.274725,0 0.06475,-0.0648 -0.04095,-0.19282 0,-0.27473 0.02896,-0.0579 0.108404,-0.0794 0.137363,-0.13736 0.01539,-0.0308 0,-0.51681 0,-0.54945 0,-0.0458 0.04579,0.13736 0,0.13736 -0.04579,0 -0.03238,-0.10498 0,-0.13736 0.03238,-0.0324 0.104986,0.0324 0.137363,0 0.0055,-0.006 0,-0.499 0,-0.54945 0,-0.0458 0.03238,-0.10498 0,-0.13736 -0.03238,-0.0324 -0.09158,0 -0.137363,0 -0.09158,0 -0.18315,0 -0.274725,0 -0.04579,0 0.137362,-0.0458 0.137362,0 0,0.0458 -0.09641,0.0205 -0.137362,0 -0.05792,-0.029 -0.07945,-0.10841 -0.137363,-0.13736 -0.05009,-0.025 -1.045717,0 -1.098901,0 z"
           id="path6109"
           inkscape:connector-curvature="0" />
        <path
           style="fill:none;fill-rule:evenodd;stroke:#692f2f;stroke-width:1px;stroke-linecap:butt;stroke-linejoin:miter;stroke-opacity:1"
           d="m -6.1813183,678.04902 c -0.09157,0.22893 -0.164454,0.46627 -0.274725,0.68681 -0.02048,0.0409 0.04579,-0.13736 0,-0.13736 -0.208438,0 -0.109999,0.19263 -0.137363,0.27472 -0.233265,0.6998 -0.137363,-0.17251 -0.137363,0.27473 0,0.54945 -0.04579,-0.22894 0.137363,0.13736 0.04095,0.0819 -0.04095,0.19282 0,0.27472 0.02048,0.041 0.09641,-0.0205 0.137363,0 0.164835,0.0824 0.247252,0.32968 0.412088,0.41209 0.04095,0.0205 0.104985,-0.0324 0.137362,0 0.03238,0.0324 -0.03238,0.10499 0,0.13737 0.01374,0.0137 0.398352,0.0137 0.412088,0 0.03238,-0.0324 -0.03238,-0.10499 0,-0.13737 0.06868,-0.0687 0.343407,0.0687 0.412088,0 0.03238,-0.0324 -0.03238,-0.10498 0,-0.13736 0.06475,-0.0648 0.209972,0.0648 0.274725,0 0.06475,-0.0648 -0.04095,-0.19282 0,-0.27473 0.02896,-0.0579 0.108404,-0.0794 0.137363,-0.13736 0.01539,-0.0308 0,-0.51681 0,-0.54945 0,-0.0458 0.04579,0.13736 0,0.13736 -0.04579,0 -0.03238,-0.10498 0,-0.13736 0.03238,-0.0324 0.104986,0.0324 0.137363,0 0.0055,-0.006 0,-0.499 0,-0.54945 0,-0.0458 0.03238,-0.10498 0,-0.13736 -0.03238,-0.0324 -0.09158,0 -0.137363,0 -0.09158,0 -0.18315,0 -0.274725,0 -0.04579,0 0.137362,-0.0458 0.137362,0 0,0.0458 -0.09641,0.0205 -0.137362,0 -0.05792,-0.029 -0.07945,-0.10841 -0.137363,-0.13736 -0.05009,-0.025 -1.045717,0 -1.098901,0 z"
           id="path6111"
           inkscape:connector-curvature="0" />
        <path
           inkscape:connector-curvature="0"
           id="path6113"
           d="m -6.0439554,683.2688 c -0.09157,0.22893 -0.164454,0.46627 -0.274725,0.68681 -0.02048,0.0409 0.04579,-0.13736 0,-0.13736 -0.208438,0 -0.109999,0.19263 -0.137363,0.27472 -0.233265,0.6998 -0.137363,-0.17251 -0.137363,0.27473 0,0.54945 -0.04579,-0.22894 0.137363,0.13736 0.04095,0.0819 -0.04095,0.19282 0,0.27472 0.02048,0.041 0.09641,-0.0205 0.137363,0 0.164835,0.0824 0.247252,0.32968 0.412088,0.41209 0.04095,0.0205 0.104985,-0.0324 0.137362,0 0.03238,0.0324 -0.03238,0.10499 0,0.13737 0.01374,0.0137 0.398352,0.0137 0.412088,0 0.03238,-0.0324 -0.03238,-0.10499 0,-0.13737 0.06868,-0.0687 0.343407,0.0687 0.412088,0 0.03238,-0.0324 -0.03238,-0.10498 0,-0.13736 0.06475,-0.0648 0.209972,0.0648 0.274725,0 0.06475,-0.0648 -0.04095,-0.19282 0,-0.27473 0.02896,-0.0579 0.108404,-0.0794 0.137363,-0.13736 0.01539,-0.0308 0,-0.51681 0,-0.54945 0,-0.0458 0.04579,0.13736 0,0.13736 -0.04579,0 -0.03238,-0.10498 0,-0.13736 0.03238,-0.0324 0.104986,0.0324 0.137363,0 0.0055,-0.006 0,-0.499 0,-0.54945 0,-0.0458 0.03238,-0.10498 0,-0.13736 -0.03238,-0.0324 -0.09158,0 -0.137363,0 -0.09158,0 -0.18315,0 -0.274725,0 -0.04579,0 0.137362,-0.0458 0.137362,0 0,0.0458 -0.09641,0.0205 -0.137362,0 -0.05792,-0.029 -0.07945,-0.10841 -0.137363,-0.13736 -0.05009,-0.025 -1.045717,0 -1.098901,0 z"
           style="fill:none;fill-rule:evenodd;stroke:#692f2f;stroke-width:1px;stroke-linecap:butt;stroke-linejoin:miter;stroke-opacity:1" />
        <path
           style="fill:none;fill-rule:evenodd;stroke:#692f2f;stroke-width:1px;stroke-linecap:butt;stroke-linejoin:miter;stroke-opacity:1"
           d="m -6.4560429,687.93913 c -0.09157,0.22893 -0.164454,0.46627 -0.274725,0.68681 -0.02048,0.0409 0.04579,-0.13736 0,-0.13736 -0.208438,0 -0.109999,0.19263 -0.137363,0.27472 -0.233265,0.6998 -0.137363,-0.17251 -0.137363,0.27473 0,0.54945 -0.04579,-0.22894 0.137363,0.13736 0.04095,0.0819 -0.04095,0.19282 0,0.27472 0.02048,0.041 0.09641,-0.0205 0.137363,0 0.164835,0.0824 0.247252,0.32968 0.412088,0.41209 0.04095,0.0205 0.104985,-0.0324 0.137362,0 0.03238,0.0324 -0.03238,0.10499 0,0.13737 0.01374,0.0137 0.398352,0.0137 0.412088,0 0.03238,-0.0324 -0.03238,-0.10499 0,-0.13737 0.06868,-0.0687 0.343407,0.0687 0.412088,0 0.03238,-0.0324 -0.03238,-0.10498 0,-0.13736 0.06475,-0.0648 0.209972,0.0648 0.274725,0 0.06475,-0.0648 -0.04095,-0.19282 0,-0.27473 0.02896,-0.0579 0.108404,-0.0794 0.137363,-0.13736 0.01539,-0.0308 0,-0.51681 0,-0.54945 0,-0.0458 0.04579,0.13736 0,0.13736 -0.04579,0 -0.03238,-0.10498 0,-0.13736 0.03238,-0.0324 0.104986,0.0324 0.137363,0 0.0055,-0.006 0,-0.499 0,-0.54945 0,-0.0458 0.03238,-0.10498 0,-0.13736 -0.03238,-0.0324 -0.09158,0 -0.137363,0 -0.09158,0 -0.18315,0 -0.274725,0 -0.04579,0 0.137362,-0.0458 0.137362,0 0,0.0458 -0.09641,0.0205 -0.137362,0 -0.05792,-0.029 -0.07945,-0.10841 -0.137363,-0.13736 -0.05009,-0.025 -1.045717,0 -1.098901,0 z"
           id="path6115"
           inkscape:connector-curvature="0" />
        <path
           inkscape:connector-curvature="0"
           id="path6117"
           d="m -6.1813173,692.88418 c -0.09157,0.22893 -0.164454,0.46627 -0.274725,0.68681 -0.02048,0.0409 0.04579,-0.13736 0,-0.13736 -0.208438,0 -0.109999,0.19263 -0.137363,0.27472 -0.233265,0.6998 -0.137363,-0.17251 -0.137363,0.27473 0,0.54945 -0.04579,-0.22894 0.137363,0.13736 0.04095,0.0819 -0.04095,0.19282 0,0.27472 0.02048,0.041 0.09641,-0.0205 0.137363,0 0.164835,0.0824 0.247252,0.32968 0.412088,0.41209 0.04095,0.0205 0.104985,-0.0324 0.137362,0 0.03238,0.0324 -0.03238,0.10499 0,0.13737 0.01374,0.0137 0.398352,0.0137 0.412088,0 0.03238,-0.0324 -0.03238,-0.10499 0,-0.13737 0.06868,-0.0687 0.343407,0.0687 0.412088,0 0.03238,-0.0324 -0.03238,-0.10498 0,-0.13736 0.06475,-0.0648 0.209972,0.0648 0.274725,0 0.06475,-0.0648 -0.04095,-0.19282 0,-0.27473 0.02896,-0.0579 0.108404,-0.0794 0.137363,-0.13736 0.01539,-0.0308 0,-0.51681 0,-0.54945 0,-0.0458 0.04579,0.13736 0,0.13736 -0.04579,0 -0.03238,-0.10498 0,-0.13736 0.03238,-0.0324 0.104986,0.0324 0.137363,0 0.0055,-0.006 0,-0.499 0,-0.54945 0,-0.0458 0.03238,-0.10498 0,-0.13736 -0.03238,-0.0324 -0.09158,0 -0.137363,0 -0.09158,0 -0.18315,0 -0.274725,0 -0.04579,0 0.137362,-0.0458 0.137362,0 0,0.0458 -0.09641,0.0205 -0.137362,0 -0.05792,-0.029 -0.07945,-0.10841 -0.137363,-0.13736 -0.05009,-0.025 -1.045717,0 -1.098901,0 z"
           style="fill:none;fill-rule:evenodd;stroke:#692f2f;stroke-width:1px;stroke-linecap:butt;stroke-linejoin:miter;stroke-opacity:1" />
        <path
           inkscape:connector-curvature="0"
           id="path6119"
           d="M 3.8131868e-7,677.91166 C -0.09156962,678.14059 -0.16445362,678.37793 -0.27472462,678.59847 c -0.02048,0.0409 0.04579,-0.13736 0,-0.13736 -0.208438,0 -0.109999,0.19263 -0.137363,0.27472 -0.233265,0.6998 -0.137363,-0.17251 -0.137363,0.27473 0,0.54945 -0.04579,-0.22894 0.137363,0.13736 0.04095,0.0819 -0.04095,0.19282 0,0.27472 0.02048,0.041 0.09641,-0.0205 0.137363,0 0.164835,0.0824 0.247252,0.32968 0.412088,0.41209 0.04095,0.0205 0.104985,-0.0324 0.137362,0 0.03238,0.0324 -0.03238,0.10499 0,0.13737 0.01374,0.0137 0.398352,0.0137 0.412088,0 0.03238,-0.0324 -0.03238,-0.10499 0,-0.13737 0.06868,-0.0687 0.34340702,0.0687 0.41208802,0 0.03238,-0.0324 -0.03238,-0.10498 0,-0.13736 0.06475,-0.0648 0.209972,0.0648 0.274725,0 0.06475,-0.0648 -0.04095,-0.19282 0,-0.27473 0.02896,-0.0579 0.108404,-0.0794 0.137363,-0.13736 0.01539,-0.0308 0,-0.51681 0,-0.54945 0,-0.0458 0.04579,0.13736 0,0.13736 -0.04579,0 -0.03238,-0.10498 0,-0.13736 0.03238,-0.0324 0.104986,0.0324 0.137363,0 0.0055,-0.006 0,-0.499 0,-0.54945 0,-0.0458 0.03238,-0.10498 0,-0.13736 -0.03238,-0.0324 -0.09158,0 -0.137363,0 -0.09158,0 -0.18315,0 -0.274725,0 -0.04579,0 0.137362,-0.0458 0.137362,0 0,0.0458 -0.09641,0.0205 -0.137362,0 -0.05792,-0.029 -0.07945,-0.10841 -0.137363,-0.13736 -0.05009,-0.025 -1.04571702,0 -1.09890101868132,0 z"
           style="fill:none;fill-rule:evenodd;stroke:#692f2f;stroke-width:1px;stroke-linecap:butt;stroke-linejoin:miter;stroke-opacity:1" />
        <path
           style="fill:none;fill-rule:evenodd;stroke:#692f2f;stroke-width:1px;stroke-linecap:butt;stroke-linejoin:miter;stroke-opacity:1"
           d="m -0.27472462,682.58199 c -0.09157,0.22893 -0.164454,0.46627 -0.274725,0.68681 -0.02048,0.0409 0.04579,-0.13736 0,-0.13736 -0.208438,0 -0.109999,0.19263 -0.137363,0.27472 -0.233265,0.6998 -0.137363,-0.17251 -0.137363,0.27473 0,0.54945 -0.04579,-0.22894 0.137363,0.13736 0.04095,0.0819 -0.04095,0.19282 0,0.27472 0.02048,0.041 0.09641,-0.0205 0.137363,0 0.164835,0.0824 0.247252,0.32968 0.412088,0.41209 0.04095,0.0205 0.104985,-0.0324 0.13736200131868,0 0.0323799986813,0.0324 -0.0323800013187,0.10499 0,0.13737 0.0137399986813,0.0137 0.39835199868132,0.0137 0.41208799868132,0 0.03238,-0.0324 -0.03238,-0.10499 0,-0.13737 0.06868,-0.0687 0.343407,0.0687 0.412088,0 0.03238,-0.0324 -0.03238,-0.10498 0,-0.13736 0.06475,-0.0648 0.20997202,0.0648 0.27472502,0 0.06475,-0.0648 -0.04095,-0.19282 0,-0.27473 0.02896,-0.0579 0.108404,-0.0794 0.137363,-0.13736 0.01539,-0.0308 0,-0.51681 0,-0.54945 0,-0.0458 0.04579,0.13736 0,0.13736 -0.04579,0 -0.03238,-0.10498 0,-0.13736 0.03238,-0.0324 0.104986,0.0324 0.137363,0 0.0055,-0.006 0,-0.499 0,-0.54945 0,-0.0458 0.03238,-0.10498 0,-0.13736 -0.03238,-0.0324 -0.09158,0 -0.137363,0 -0.09158,0 -0.18315,0 -0.27472502,0 -0.04579,0 0.13736202,-0.0458 0.13736202,0 0,0.0458 -0.09641,0.0205 -0.13736202,0 -0.05792,-0.029 -0.07945,-0.10841 -0.137363,-0.13736 -0.05009,-0.025 -1.045717,0 -1.098901,0 z"
           id="path6121"
           inkscape:connector-curvature="0" />
        <path
           inkscape:connector-curvature="0"
           id="path6123"
           d="m -0.13736162,687.38968 c -0.09157,0.22893 -0.164454,0.46627 -0.274725,0.68681 -0.02048,0.0409 0.04579,-0.13736 0,-0.13736 -0.208438,0 -0.109999,0.19263 -0.137363,0.27472 -0.233265,0.6998 -0.137363,-0.17251 -0.137363,0.27473 0,0.54945 -0.04579,-0.22894 0.137363,0.13736 0.04095,0.0819 -0.04095,0.19282 0,0.27472 0.02048,0.041 0.09641,-0.0205 0.137363,0 0.164835,0.0824 0.247252,0.32968 0.4120880013187,0.41209 0.040949998681,0.0205 0.1049849986813,-0.0324 0.1373619986813,0 0.03238,0.0324 -0.03238,0.10499 0,0.13737 0.01374,0.0137 0.398352,0.0137 0.412088,0 0.03238,-0.0324 -0.03238,-0.10499 0,-0.13737 0.06868,-0.0687 0.343407,0.0687 0.412088,0 0.03238,-0.0324 -0.03238,-0.10498 0,-0.13736 0.06475,-0.0648 0.20997202,0.0648 0.27472502,0 0.06475,-0.0648 -0.04095,-0.19282 0,-0.27473 0.02896,-0.0579 0.108404,-0.0794 0.137363,-0.13736 0.01539,-0.0308 0,-0.51681 0,-0.54945 0,-0.0458 0.04579,0.13736 0,0.13736 -0.04579,0 -0.03238,-0.10498 0,-0.13736 0.03238,-0.0324 0.104986,0.0324 0.137363,0 0.0055,-0.006 0,-0.499 0,-0.54945 0,-0.0458 0.03238,-0.10498 0,-0.13736 -0.03238,-0.0324 -0.09158,0 -0.137363,0 -0.09158,0 -0.18315,0 -0.274725,0 -0.04579,0 0.137362,-0.0458 0.137362,0 0,0.0458 -0.09641,0.0205 -0.137362,0 -0.05792,-0.029 -0.07945,-0.10841 -0.13736302,-0.13736 -0.05009,-0.025 -1.045717,0 -1.098901,0 z"
           style="fill:none;fill-rule:evenodd;stroke:#692f2f;stroke-width:1px;stroke-linecap:butt;stroke-linejoin:miter;stroke-opacity:1" />
        <path
           style="fill:none;fill-rule:evenodd;stroke:#692f2f;stroke-width:1px;stroke-linecap:butt;stroke-linejoin:miter;stroke-opacity:1"
           d="m 0.27472666,692.06001 c -0.09157,0.22893 -0.16445401,0.46627 -0.2747250052747,0.68681 -0.020480004725,0.0409 0.045789995275,-0.13736 0,-0.13736 -0.2084380047253,0 -0.1099990047253,0.19263 -0.1373630047253,0.27472 -0.233265,0.6998 -0.137363,-0.17251 -0.137363,0.27473 0,0.54945 -0.04579,-0.22894 0.137363,0.13736 0.04095,0.0819 -0.04095,0.19282 0,0.27472 0.02048,0.041 0.09641,-0.0205 0.1373630047253,0 C 0.16483665,693.65339 0.24725365,693.90067 0.41208965,693.98308 c 0.04095,0.0205 0.104985,-0.0324 0.137362,0 0.03238,0.0324 -0.03238,0.10499 0,0.13737 0.01374,0.0137 0.398352,0.0137 0.412088,0 0.03238,-0.0324 -0.03238,-0.10499 0,-0.13737 0.0686799,-0.0687 0.34340705,0.0687 0.41208805,0 0.03238,-0.0324 -0.03238,-0.10498 0,-0.13736 0.06475,-0.0648 0.209972,0.0648 0.274725,0 0.06475,-0.0648 -0.04095,-0.19282 0,-0.27473 0.02896,-0.0579 0.108404,-0.0794 0.137363,-0.13736 0.01539,-0.0308 0,-0.51681 0,-0.54945 0,-0.0458 0.04579,0.13736 0,0.13736 -0.04579,0 -0.03238,-0.10498 0,-0.13736 0.03238,-0.0324 0.104986,0.0324 0.137363,0 0.0055,-0.006 0,-0.499 0,-0.54945 0,-0.0458 0.03238,-0.10498 0,-0.13736 -0.03238,-0.0324 -0.09158,0 -0.137363,0 -0.09158,0 -0.18315,0 -0.274725,0 -0.04579,0 0.137362,-0.0458 0.137362,0 0,0.0458 -0.09641,0.0205 -0.137362,0 -0.05792,-0.029 -0.07945,-0.10841 -0.137363,-0.13736 -0.05009,-0.025 -1.04571705,0 -1.09890104,0 z"
           id="path6125"
           inkscape:connector-curvature="0" />
        <path
           style="fill:none;fill-rule:evenodd;stroke:#692f2f;stroke-width:1px;stroke-linecap:butt;stroke-linejoin:miter;stroke-opacity:1"
           d="m 6.4560443,677.7743 c -0.09157,0.22893 -0.164454,0.46627 -0.274725,0.68681 -0.02048,0.0409 0.04579,-0.13736 0,-0.13736 -0.208438,0 -0.109999,0.19263 -0.137363,0.27472 -0.233265,0.6998 -0.137363,-0.17251 -0.137363,0.27473 0,0.54945 -0.04579,-0.22894 0.137363,0.13736 0.04095,0.0819 -0.04095,0.19282 0,0.27472 0.02048,0.041 0.09641,-0.0205 0.137363,0 0.164835,0.0824 0.247252,0.32968 0.412088,0.41209 0.04095,0.0205 0.104985,-0.0324 0.137362,0 0.03238,0.0324 -0.03238,0.10499 0,0.13737 0.01374,0.0137 0.398352,0.0137 0.412088,0 0.03238,-0.0324 -0.03238,-0.10499 0,-0.13737 0.06868,-0.0687 0.3434071,0.0687 0.4120881,0 0.03238,-0.0324 -0.03238,-0.10498 0,-0.13736 0.06475,-0.0648 0.209972,0.0648 0.274725,0 0.06475,-0.0648 -0.04095,-0.19282 0,-0.27473 0.02896,-0.0579 0.108404,-0.0794 0.137363,-0.13736 0.01539,-0.0308 0,-0.51681 0,-0.54945 0,-0.0458 0.04579,0.13736 0,0.13736 -0.04579,0 -0.03238,-0.10498 0,-0.13736 0.03238,-0.0324 0.104986,0.0324 0.137363,0 0.0055,-0.006 0,-0.499 0,-0.54945 0,-0.0458 0.03238,-0.10498 0,-0.13736 -0.03238,-0.0324 -0.09158,0 -0.137363,0 -0.09158,0 -0.18315,0 -0.274725,0 -0.04579,0 0.137362,-0.0458 0.137362,0 0,0.0458 -0.09641,0.0205 -0.137362,0 -0.05792,-0.029 -0.07945,-0.10841 -0.137363,-0.13736 -0.05009,-0.025 -1.0457171,0 -1.0989011,0 z"
           id="path6127"
           inkscape:connector-curvature="0" />
        <path
           inkscape:connector-curvature="0"
           id="path6129"
           d="m 5.7692314,681.75782 c -0.09157,0.22893 -0.164454,0.46627 -0.274725,0.68681 -0.02048,0.0409 0.04579,-0.13736 0,-0.13736 -0.208438,0 -0.109999,0.19263 -0.137363,0.27472 -0.233265,0.6998 -0.137363,-0.17251 -0.137363,0.27473 0,0.54945 -0.04579,-0.22894 0.137363,0.13736 0.04095,0.0819 -0.04095,0.19282 0,0.27472 0.02048,0.041 0.09641,-0.0205 0.137363,0 0.164835,0.0824 0.247252,0.32968 0.412088,0.41209 0.04095,0.0205 0.104985,-0.0324 0.137362,0 0.03238,0.0324 -0.03238,0.10499 0,0.13737 0.01374,0.0137 0.398352,0.0137 0.412088,0 0.03238,-0.0324 -0.03238,-0.10499 0,-0.13737 0.06868,-0.0687 0.343407,0.0687 0.412088,0 0.03238,-0.0324 -0.03238,-0.10498 0,-0.13736 0.06475,-0.0648 0.2099721,0.0648 0.2747251,0 0.06475,-0.0648 -0.04095,-0.19282 0,-0.27473 0.02896,-0.0579 0.108404,-0.0794 0.137363,-0.13736 0.01539,-0.0308 0,-0.51681 0,-0.54945 0,-0.0458 0.04579,0.13736 0,0.13736 -0.04579,0 -0.03238,-0.10498 0,-0.13736 0.03238,-0.0324 0.104986,0.0324 0.137363,0 0.0055,-0.006 0,-0.499 0,-0.54945 0,-0.0458 0.03238,-0.10498 0,-0.13736 -0.03238,-0.0324 -0.09158,0 -0.137363,0 -0.09158,0 -0.18315,0 -0.2747251,0 -0.04579,0 0.1373621,-0.0458 0.1373621,0 0,0.0458 -0.09641,0.0205 -0.1373621,0 -0.05792,-0.029 -0.07945,-0.10841 -0.137363,-0.13736 -0.05009,-0.025 -1.045717,0 -1.098901,0 z"
           style="fill:none;fill-rule:evenodd;stroke:#692f2f;stroke-width:1px;stroke-linecap:butt;stroke-linejoin:miter;stroke-opacity:1" />
        <path
           style="fill:none;fill-rule:evenodd;stroke:#692f2f;stroke-width:1px;stroke-linecap:butt;stroke-linejoin:miter;stroke-opacity:1"
           d="m 6.1813197,686.70287 c -0.09157,0.22893 -0.164454,0.46627 -0.274725,0.68681 -0.02048,0.0409 0.04579,-0.13736 0,-0.13736 -0.208438,0 -0.109999,0.19263 -0.137363,0.27472 -0.233265,0.6998 -0.137363,-0.17251 -0.137363,0.27473 0,0.54945 -0.04579,-0.22894 0.137363,0.13736 0.04095,0.0819 -0.04095,0.19282 0,0.27472 0.02048,0.041 0.09641,-0.0205 0.137363,0 0.164835,0.0824 0.247252,0.32968 0.412088,0.41209 0.04095,0.0205 0.104985,-0.0324 0.137362,0 0.03238,0.0324 -0.03238,0.10499 0,0.13737 0.01374,0.0137 0.398352,0.0137 0.412088,0 0.03238,-0.0324 -0.03238,-0.10499 0,-0.13737 0.06868,-0.0687 0.343407,0.0687 0.412088,0 0.03238,-0.0324 -0.03238,-0.10498 0,-0.13736 0.06475,-0.0648 0.2099721,0.0648 0.2747251,0 0.06475,-0.0648 -0.04095,-0.19282 0,-0.27473 0.02896,-0.0579 0.108404,-0.0794 0.137363,-0.13736 0.01539,-0.0308 0,-0.51681 0,-0.54945 0,-0.0458 0.04579,0.13736 0,0.13736 -0.04579,0 -0.03238,-0.10498 0,-0.13736 0.03238,-0.0324 0.104986,0.0324 0.137363,0 0.0055,-0.006 0,-0.499 0,-0.54945 0,-0.0458 0.03238,-0.10498 0,-0.13736 -0.03238,-0.0324 -0.09158,0 -0.137363,0 -0.09158,0 -0.18315,0 -0.274725,0 -0.04579,0 0.137362,-0.0458 0.137362,0 0,0.0458 -0.09641,0.0205 -0.137362,0 -0.05792,-0.029 -0.07945,-0.10841 -0.1373631,-0.13736 -0.05009,-0.025 -1.045717,0 -1.098901,0 z"
           id="path6131"
           inkscape:connector-curvature="0" />
        <path
           inkscape:connector-curvature="0"
           id="path6133"
           d="m 6.7307706,692.06001 c -0.09157,0.22893 -0.164454,0.46627 -0.274725,0.68681 -0.02048,0.0409 0.04579,-0.13736 0,-0.13736 -0.208438,0 -0.109999,0.19263 -0.137363,0.27472 -0.233265,0.6998 -0.137363,-0.17251 -0.137363,0.27473 0,0.54945 -0.04579,-0.22894 0.137363,0.13736 0.04095,0.0819 -0.04095,0.19282 0,0.27472 0.02048,0.041 0.09641,-0.0205 0.137363,0 0.164835,0.0824 0.247252,0.32968 0.412088,0.41209 0.04095,0.0205 0.104985,-0.0324 0.137362,0 0.03238,0.0324 -0.03238,0.10499 0,0.13737 0.01374,0.0137 0.398352,0.0137 0.412088,0 0.03238,-0.0324 -0.03238,-0.10499 0,-0.13737 0.06868,-0.0687 0.3434071,0.0687 0.4120881,0 0.03238,-0.0324 -0.03238,-0.10498 0,-0.13736 0.06475,-0.0648 0.209972,0.0648 0.274725,0 0.06475,-0.0648 -0.04095,-0.19282 0,-0.27473 0.02896,-0.0579 0.108404,-0.0794 0.137363,-0.13736 0.01539,-0.0308 0,-0.51681 0,-0.54945 0,-0.0458 0.04579,0.13736 0,0.13736 -0.04579,0 -0.03238,-0.10498 0,-0.13736 0.03238,-0.0324 0.104986,0.0324 0.137363,0 0.0055,-0.006 0,-0.499 0,-0.54945 0,-0.0458 0.03238,-0.10498 0,-0.13736 -0.03238,-0.0324 -0.09158,0 -0.137363,0 -0.09158,0 -0.18315,0 -0.274725,0 -0.04579,0 0.137362,-0.0458 0.137362,0 0,0.0458 -0.09641,0.0205 -0.137362,0 -0.05792,-0.029 -0.07945,-0.10841 -0.137363,-0.13736 -0.05009,-0.025 -1.0457171,0 -1.0989011,0 z"
           style="fill:none;fill-rule:evenodd;stroke:#692f2f;stroke-width:1px;stroke-linecap:butt;stroke-linejoin:miter;stroke-opacity:1" />
        <path
           inkscape:connector-curvature="0"
           id="path6135"
           d="m 13.186814,678.18639 c -0.09157,0.22893 -0.164454,0.46627 -0.274725,0.68681 -0.02048,0.0409 0.04579,-0.13736 0,-0.13736 -0.208438,0 -0.109999,0.19263 -0.137363,0.27472 -0.233265,0.6998 -0.137363,-0.17251 -0.137363,0.27473 0,0.54945 -0.04579,-0.22894 0.137363,0.13736 0.04095,0.0819 -0.04095,0.19282 0,0.27472 0.02048,0.041 0.09641,-0.0205 0.137363,0 0.164835,0.0824 0.247252,0.32968 0.412088,0.41209 0.04095,0.0205 0.104985,-0.0324 0.137362,0 0.03238,0.0324 -0.03238,0.10499 0,0.13737 0.01374,0.0137 0.398352,0.0137 0.412088,0 0.03238,-0.0324 -0.03238,-0.10499 0,-0.13737 0.06868,-0.0687 0.343407,0.0687 0.412088,0 0.03238,-0.0324 -0.03238,-0.10498 0,-0.13736 0.06475,-0.0648 0.209972,0.0648 0.274725,0 0.06475,-0.0648 -0.04095,-0.19282 0,-0.27473 0.02896,-0.0579 0.108404,-0.0794 0.137363,-0.13736 0.01539,-0.0308 0,-0.51681 0,-0.54945 0,-0.0458 0.04579,0.13736 0,0.13736 -0.04579,0 -0.03238,-0.10498 0,-0.13736 0.03238,-0.0324 0.104986,0.0324 0.137363,0 0.0055,-0.006 0,-0.499 0,-0.54945 0,-0.0458 0.03238,-0.10498 0,-0.13736 -0.03238,-0.0324 -0.09158,0 -0.137363,0 -0.09158,0 -0.18315,0 -0.274725,0 -0.04579,0 0.137362,-0.0458 0.137362,0 0,0.0458 -0.09641,0.0205 -0.137362,0 -0.05792,-0.029 -0.07945,-0.10841 -0.137363,-0.13736 -0.05009,-0.025 -1.045717,0 -1.098901,0 z"
           style="fill:none;fill-rule:evenodd;stroke:#692f2f;stroke-width:1px;stroke-linecap:butt;stroke-linejoin:miter;stroke-opacity:1" />
        <path
           style="fill:none;fill-rule:evenodd;stroke:#692f2f;stroke-width:1px;stroke-linecap:butt;stroke-linejoin:miter;stroke-opacity:1"
           d="m 13.049451,682.71936 c -0.09157,0.22893 -0.164454,0.46627 -0.274725,0.68681 -0.02048,0.0409 0.04579,-0.13736 0,-0.13736 -0.208438,0 -0.109999,0.19263 -0.137363,0.27472 -0.233265,0.6998 -0.137363,-0.17251 -0.137363,0.27473 0,0.54945 -0.04579,-0.22894 0.137363,0.13736 0.04095,0.0819 -0.04095,0.19282 0,0.27472 0.02048,0.041 0.09641,-0.0205 0.137363,0 0.164835,0.0824 0.247252,0.32968 0.412088,0.41209 0.04095,0.0205 0.104985,-0.0324 0.137362,0 0.03238,0.0324 -0.03238,0.10499 0,0.13737 0.01374,0.0137 0.398352,0.0137 0.412088,0 0.03238,-0.0324 -0.03238,-0.10499 0,-0.13737 0.06868,-0.0687 0.343407,0.0687 0.412088,0 0.03238,-0.0324 -0.03238,-0.10498 0,-0.13736 0.06475,-0.0648 0.209972,0.0648 0.274725,0 0.06475,-0.0648 -0.04095,-0.19282 0,-0.27473 0.02896,-0.0579 0.108404,-0.0794 0.137363,-0.13736 0.01539,-0.0308 0,-0.51681 0,-0.54945 0,-0.0458 0.04579,0.13736 0,0.13736 -0.04579,0 -0.03238,-0.10498 0,-0.13736 0.03238,-0.0324 0.104986,0.0324 0.137363,0 0.0055,-0.006 0,-0.499 0,-0.54945 0,-0.0458 0.03238,-0.10498 0,-0.13736 -0.03238,-0.0324 -0.09158,0 -0.137363,0 -0.09158,0 -0.18315,0 -0.274725,0 -0.04579,0 0.137362,-0.0458 0.137362,0 0,0.0458 -0.09641,0.0205 -0.137362,0 -0.05792,-0.029 -0.07945,-0.10841 -0.137363,-0.13736 -0.05009,-0.025 -1.045717,0 -1.098901,0 z"
           id="path6137"
           inkscape:connector-curvature="0" />
        <path
           inkscape:connector-curvature="0"
           id="path6139"
           d="m 13.186814,687.25232 c -0.09157,0.22893 -0.164454,0.46627 -0.274725,0.68681 -0.02048,0.0409 0.04579,-0.13736 0,-0.13736 -0.208438,0 -0.109999,0.19263 -0.137363,0.27472 -0.233265,0.6998 -0.137363,-0.17251 -0.137363,0.27473 0,0.54945 -0.04579,-0.22894 0.137363,0.13736 0.04095,0.0819 -0.04095,0.19282 0,0.27472 0.02048,0.041 0.09641,-0.0205 0.137363,0 0.164835,0.0824 0.247252,0.32968 0.412088,0.41209 0.04095,0.0205 0.104985,-0.0324 0.137362,0 0.03238,0.0324 -0.03238,0.10499 0,0.13737 0.01374,0.0137 0.398352,0.0137 0.412088,0 0.03238,-0.0324 -0.03238,-0.10499 0,-0.13737 0.06868,-0.0687 0.343407,0.0687 0.412088,0 0.03238,-0.0324 -0.03238,-0.10498 0,-0.13736 0.06475,-0.0648 0.209972,0.0648 0.274725,0 0.06475,-0.0648 -0.04095,-0.19282 0,-0.27473 0.02896,-0.0579 0.108404,-0.0794 0.137363,-0.13736 0.01539,-0.0308 0,-0.51681 0,-0.54945 0,-0.0458 0.04579,0.13736 0,0.13736 -0.04579,0 -0.03238,-0.10498 0,-0.13736 0.03238,-0.0324 0.104986,0.0324 0.137363,0 0.0055,-0.006 0,-0.499 0,-0.54945 0,-0.0458 0.03238,-0.10498 0,-0.13736 -0.03238,-0.0324 -0.09158,0 -0.137363,0 -0.09158,0 -0.18315,0 -0.274725,0 -0.04579,0 0.137362,-0.0458 0.137362,0 0,0.0458 -0.09641,0.0205 -0.137362,0 -0.05792,-0.029 -0.07945,-0.10841 -0.137363,-0.13736 -0.05009,-0.025 -1.045717,0 -1.098901,0 z"
           style="fill:none;fill-rule:evenodd;stroke:#692f2f;stroke-width:1px;stroke-linecap:butt;stroke-linejoin:miter;stroke-opacity:1" />
        <path
           style="fill:none;fill-rule:evenodd;stroke:#692f2f;stroke-width:1px;stroke-linecap:butt;stroke-linejoin:miter;stroke-opacity:1"
           d="m 13.186815,692.74682 c -0.09157,0.22893 -0.164454,0.46627 -0.274725,0.68681 -0.02048,0.0409 0.04579,-0.13736 0,-0.13736 -0.208438,0 -0.109999,0.19263 -0.137363,0.27472 -0.233265,0.6998 -0.137363,-0.17251 -0.137363,0.27473 0,0.54945 -0.04579,-0.22894 0.137363,0.13736 0.04095,0.0819 -0.04095,0.19282 0,0.27472 0.02048,0.041 0.09641,-0.0205 0.137363,0 0.164835,0.0824 0.247252,0.32968 0.412088,0.41209 0.04095,0.0205 0.104985,-0.0324 0.137362,0 0.03238,0.0324 -0.03238,0.10499 0,0.13737 0.01374,0.0137 0.398352,0.0137 0.412088,0 0.03238,-0.0324 -0.03238,-0.10499 0,-0.13737 0.06868,-0.0687 0.343407,0.0687 0.412088,0 0.03238,-0.0324 -0.03238,-0.10498 0,-0.13736 0.06475,-0.0648 0.209972,0.0648 0.274725,0 0.06475,-0.0648 -0.04095,-0.19282 0,-0.27473 0.02896,-0.0579 0.108404,-0.0794 0.137363,-0.13736 0.01539,-0.0308 0,-0.51681 0,-0.54945 0,-0.0458 0.04579,0.13736 0,0.13736 -0.04579,0 -0.03238,-0.10498 0,-0.13736 0.03238,-0.0324 0.104986,0.0324 0.137363,0 0.0055,-0.006 0,-0.499 0,-0.54945 0,-0.0458 0.03238,-0.10498 0,-0.13736 -0.03238,-0.0324 -0.09158,0 -0.137363,0 -0.09158,0 -0.18315,0 -0.274725,0 -0.04579,0 0.137362,-0.0458 0.137362,0 0,0.0458 -0.09641,0.0205 -0.137362,0 -0.05792,-0.029 -0.07945,-0.10841 -0.137363,-0.13736 -0.05009,-0.025 -1.045717,0 -1.098901,0 z"
           id="path6141"
           inkscape:connector-curvature="0" />
        <path
           style="fill:none;fill-rule:evenodd;stroke:#692f2f;stroke-width:1px;stroke-linecap:butt;stroke-linejoin:miter;stroke-opacity:1"
           d="m 18.818682,678.32375 c -0.09157,0.22893 -0.164454,0.46627 -0.274725,0.68681 -0.02048,0.0409 0.04579,-0.13736 0,-0.13736 -0.208438,0 -0.109999,0.19263 -0.137363,0.27472 -0.233265,0.6998 -0.137363,-0.17251 -0.137363,0.27473 0,0.54945 -0.04579,-0.22894 0.137363,0.13736 0.04095,0.0819 -0.04095,0.19282 0,0.27472 0.02048,0.041 0.09641,-0.0205 0.137363,0 0.164835,0.0824 0.247252,0.32968 0.412088,0.41209 0.04095,0.0205 0.104985,-0.0324 0.137362,0 0.03238,0.0324 -0.03238,0.10499 0,0.13737 0.01374,0.0137 0.398352,0.0137 0.412088,0 0.03238,-0.0324 -0.03238,-0.10499 0,-0.13737 0.06868,-0.0687 0.343407,0.0687 0.412088,0 0.03238,-0.0324 -0.03238,-0.10498 0,-0.13736 0.06475,-0.0648 0.209972,0.0648 0.274725,0 0.06475,-0.0648 -0.04095,-0.19282 0,-0.27473 0.02896,-0.0579 0.108404,-0.0794 0.137363,-0.13736 0.01539,-0.0308 0,-0.51681 0,-0.54945 0,-0.0458 0.04579,0.13736 0,0.13736 -0.04579,0 -0.03238,-0.10498 0,-0.13736 0.03238,-0.0324 0.104986,0.0324 0.137363,0 0.0055,-0.006 0,-0.499 0,-0.54945 0,-0.0458 0.03238,-0.10498 0,-0.13736 -0.03238,-0.0324 -0.09158,0 -0.137363,0 -0.09158,0 -0.18315,0 -0.274725,0 -0.04579,0 0.137362,-0.0458 0.137362,0 0,0.0458 -0.09641,0.0205 -0.137362,0 -0.05792,-0.029 -0.07945,-0.10841 -0.137363,-0.13736 -0.05009,-0.025 -1.045717,0 -1.098901,0 z"
           id="path6143"
           inkscape:connector-curvature="0" />
        <path
           inkscape:connector-curvature="0"
           id="path6145"
           d="m 19.23077,682.99409 c -0.09157,0.22893 -0.164454,0.46627 -0.274725,0.68681 -0.02048,0.0409 0.04579,-0.13736 0,-0.13736 -0.208438,0 -0.109999,0.19263 -0.137363,0.27472 -0.233265,0.6998 -0.137363,-0.17251 -0.137363,0.27473 0,0.54945 -0.04579,-0.22894 0.137363,0.13736 0.04095,0.0819 -0.04095,0.19282 0,0.27472 0.02048,0.041 0.09641,-0.0205 0.137363,0 0.164835,0.0824 0.247252,0.32968 0.412088,0.41209 0.04095,0.0205 0.104985,-0.0324 0.137362,0 0.03238,0.0324 -0.03238,0.10499 0,0.13737 0.01374,0.0137 0.398352,0.0137 0.412088,0 0.03238,-0.0324 -0.03238,-0.10499 0,-0.13737 0.06868,-0.0687 0.343407,0.0687 0.412088,0 0.03238,-0.0324 -0.03238,-0.10498 0,-0.13736 0.06475,-0.0648 0.209972,0.0648 0.274725,0 0.06475,-0.0648 -0.04095,-0.19282 0,-0.27473 0.02896,-0.0579 0.108404,-0.0794 0.137363,-0.13736 0.01539,-0.0308 0,-0.51681 0,-0.54945 0,-0.0458 0.04579,0.13736 0,0.13736 -0.04579,0 -0.03238,-0.10498 0,-0.13736 0.03238,-0.0324 0.104986,0.0324 0.137363,0 0.0055,-0.006 0,-0.499 0,-0.54945 0,-0.0458 0.03238,-0.10498 0,-0.13736 -0.03238,-0.0324 -0.09158,0 -0.137363,0 -0.09158,0 -0.18315,0 -0.274725,0 -0.04579,0 0.137362,-0.0458 0.137362,0 0,0.0458 -0.09641,0.0205 -0.137362,0 -0.05792,-0.029 -0.07945,-0.10841 -0.137363,-0.13736 -0.05009,-0.025 -1.045717,0 -1.098901,0 z"
           style="fill:none;fill-rule:evenodd;stroke:#692f2f;stroke-width:1px;stroke-linecap:butt;stroke-linejoin:miter;stroke-opacity:1" />
        <path
           style="fill:none;fill-rule:evenodd;stroke:#692f2f;stroke-width:1px;stroke-linecap:butt;stroke-linejoin:miter;stroke-opacity:1"
           d="m 19.230771,687.52705 c -0.09157,0.22893 -0.164454,0.46627 -0.274725,0.68681 -0.02048,0.0409 0.04579,-0.13736 0,-0.13736 -0.208438,0 -0.109999,0.19263 -0.137363,0.27472 -0.233265,0.6998 -0.137363,-0.17251 -0.137363,0.27473 0,0.54945 -0.04579,-0.22894 0.137363,0.13736 0.04095,0.0819 -0.04095,0.19282 0,0.27472 0.02048,0.041 0.09641,-0.0205 0.137363,0 0.164835,0.0824 0.247252,0.32968 0.412088,0.41209 0.04095,0.0205 0.104985,-0.0324 0.137362,0 0.03238,0.0324 -0.03238,0.10499 0,0.13737 0.01374,0.0137 0.398352,0.0137 0.412088,0 0.03238,-0.0324 -0.03238,-0.10499 0,-0.13737 0.06868,-0.0687 0.343407,0.0687 0.412088,0 0.03238,-0.0324 -0.03238,-0.10498 0,-0.13736 0.06475,-0.0648 0.209972,0.0648 0.274725,0 0.06475,-0.0648 -0.04095,-0.19282 0,-0.27473 0.02896,-0.0579 0.108404,-0.0794 0.137363,-0.13736 0.01539,-0.0308 0,-0.51681 0,-0.54945 0,-0.0458 0.04579,0.13736 0,0.13736 -0.04579,0 -0.03238,-0.10498 0,-0.13736 0.03238,-0.0324 0.104986,0.0324 0.137363,0 0.0055,-0.006 0,-0.499 0,-0.54945 0,-0.0458 0.03238,-0.10498 0,-0.13736 -0.03238,-0.0324 -0.09158,0 -0.137363,0 -0.09158,0 -0.18315,0 -0.274725,0 -0.04579,0 0.137362,-0.0458 0.137362,0 0,0.0458 -0.09641,0.0205 -0.137362,0 -0.05792,-0.029 -0.07945,-0.10841 -0.137363,-0.13736 -0.05009,-0.025 -1.045717,0 -1.098901,0 z"
           id="path6147"
           inkscape:connector-curvature="0" />
        <path
           inkscape:connector-curvature="0"
           id="path6149"
           d="m 19.642859,692.74682 c -0.09157,0.22893 -0.164454,0.46627 -0.274725,0.68681 -0.02048,0.0409 0.04579,-0.13736 0,-0.13736 -0.208438,0 -0.109999,0.19263 -0.137363,0.27472 -0.233265,0.6998 -0.137363,-0.17251 -0.137363,0.27473 0,0.54945 -0.04579,-0.22894 0.137363,0.13736 0.04095,0.0819 -0.04095,0.19282 0,0.27472 0.02048,0.041 0.09641,-0.0205 0.137363,0 0.164835,0.0824 0.247252,0.32968 0.412088,0.41209 0.04095,0.0205 0.104985,-0.0324 0.137362,0 0.03238,0.0324 -0.03238,0.10499 0,0.13737 0.01374,0.0137 0.398352,0.0137 0.412088,0 0.03238,-0.0324 -0.03238,-0.10499 0,-0.13737 0.06868,-0.0687 0.343407,0.0687 0.412088,0 0.03238,-0.0324 -0.03238,-0.10498 0,-0.13736 0.06475,-0.0648 0.209972,0.0648 0.274725,0 0.06475,-0.0648 -0.04095,-0.19282 0,-0.27473 0.02896,-0.0579 0.108404,-0.0794 0.137363,-0.13736 0.01539,-0.0308 0,-0.51681 0,-0.54945 0,-0.0458 0.04579,0.13736 0,0.13736 -0.04579,0 -0.03238,-0.10498 0,-0.13736 0.03238,-0.0324 0.104986,0.0324 0.137363,0 0.0055,-0.006 0,-0.499 0,-0.54945 0,-0.0458 0.03238,-0.10498 0,-0.13736 -0.03238,-0.0324 -0.09158,0 -0.137363,0 -0.09158,0 -0.18315,0 -0.274725,0 -0.04579,0 0.137362,-0.0458 0.137362,0 0,0.0458 -0.09641,0.0205 -0.137362,0 -0.05792,-0.029 -0.07945,-0.10841 -0.137363,-0.13736 -0.05009,-0.025 -1.045717,0 -1.098901,0 z"
           style="fill:none;fill-rule:evenodd;stroke:#692f2f;stroke-width:1px;stroke-linecap:butt;stroke-linejoin:miter;stroke-opacity:1" />
        <g
           transform="matrix(1.0829631,0.36063986,-0.44826605,0.77411445,0,0)"
           style="font-style:normal;font-weight:normal;font-size:22.74300766px;line-height:125%;font-family:sans-serif;letter-spacing:0px;word-spacing:0px;fill:#dcc5aa;fill-opacity:1;stroke:none;stroke-width:1px;stroke-linecap:butt;stroke-linejoin:miter;stroke-opacity:1"
           id="text6151">
          <path
             d="m 43.75307,621.96695 c -4.129231,-0.79284 -12.509534,0.1061 -6.729061,4.89605 5.923935,-2.29571 7.317271,3.53524 0.437725,1.59961 -4.052249,-0.64558 -1.225999,13.31034 -4.380324,5.49855 0.251859,-4.63238 0.04268,-9.29901 0.11082,-13.94869 3.308083,0.41163 8.25551,-0.81609 10.56084,0.59829 0,0.45206 0,0.90413 0,1.35619 z"
             id="path6156"
             inkscape:connector-curvature="0" />
          <path
             d="m 59.333364,636.54779 c -4.072113,-1.03808 -4.853715,-7.63568 -11.248727,-4.23155 -2.859901,8.22916 -4.146588,1.75408 -1.333025,-2.3282 1.757077,-3.18322 1.798693,-8.3438 4.705504,-10.20174 4.288757,2.16099 4.19519,8.64276 6.430735,12.79033 0.481837,1.32372 0.963675,2.64744 1.445513,3.97116 z m -4.641884,-6.49642 c -1.235397,-1.76248 -2.466222,-11.06472 -3.705841,-5.86492 -1.915258,3.93286 -3.034573,7.30549 2.684224,5.86492 l 0.598286,0 0.423331,0 z"
             id="path6158"
             inkscape:connector-curvature="0" />
          <path
             d="m 76.568299,636.54779 c -4.746436,-0.67511 -1.110608,-9.07445 -2.198787,-12.9734 -0.295083,-2.30472 -2.89999,5.65193 -4.101723,7.375 -3.666136,3.21358 -7.10631,-15.26528 -6.370277,-2.86019 -0.20011,2.36952 1.060493,11.74152 -2.151837,6.98537 0.19978,-5.01396 0.05152,-10.04163 0.09741,-15.0621 6.012216,-0.16092 6.926621,14.53035 10.090671,3.41243 2.401221,-7.65323 6.215418,-0.28912 4.634538,4.57364 0,2.84975 0,5.6995 0,8.54925 z"
             id="path6160"
             inkscape:connector-curvature="0" />
          <path
             d="m 91.593341,621.96695 c -4.129231,-0.79284 -12.509534,0.1061 -6.729061,4.89605 5.923935,-2.29571 7.317271,3.53524 0.437725,1.59961 -4.052249,-0.64558 -1.225999,13.31034 -4.380324,5.49855 0.251859,-4.63238 0.04268,-9.29901 0.11082,-13.94869 3.308083,0.41163 8.25551,-0.81609 10.56084,0.59829 0,0.45206 0,0.90413 0,1.35619 z"
             id="path6162"
             inkscape:connector-curvature="0" />
          <path
             d="m 107.17363,636.54779 c -4.07211,-1.03808 -4.85371,-7.63568 -11.248722,-4.23155 -2.859901,8.22916 -4.146588,1.75408 -1.333025,-2.3282 1.757076,-3.18322 1.798694,-8.34379 4.705502,-10.20174 4.288755,2.16099 4.195195,8.64276 6.430735,12.79033 0.48184,1.32372 0.96367,2.64744 1.44551,3.97116 z m -4.64188,-6.49642 c -1.2354,-1.76248 -2.46622,-11.06472 -3.70584,-5.86492 -1.915258,3.93286 -3.034573,7.30549 2.68422,5.86492 l 0.59829,0 0.42333,0 0,0 z"
             id="path6164"
             inkscape:connector-curvature="0" />
          <path
             d="m 124.40857,636.54779 c -4.74643,-0.67512 -1.1106,-9.07445 -2.19878,-12.9734 -0.29508,-2.30472 -2.89999,5.65193 -4.10173,7.37499 -3.66613,3.2136 -7.1063,-15.26527 -6.37027,-2.86018 -0.20011,2.36952 1.0605,11.74153 -2.15184,6.98537 0.19977,-5.01396 0.0515,-10.04163 0.0974,-15.0621 6.01222,-0.16092 6.92662,14.53035 10.09067,3.41243 2.40122,-7.65323 6.21542,-0.28912 4.63454,4.57364 0,2.84975 0,5.6995 0,8.54925 z"
             id="path6166"
             inkscape:connector-curvature="0" />
          <path
             d="m 149.63909,635.34845 c -7.78925,5.96994 -18.36884,-4.8104 -12.26124,-12.51066 2.42305,-7.49666 18.51656,1.44976 8.43473,-0.5612 -12.37544,-4.38833 -7.86616,18.52044 2.72709,11.80898 1.76507,-2.53991 0.8989,0.47841 1.09942,1.26288 z"
             id="path6168"
             inkscape:connector-curvature="0" />
          <path
             d="m 165.09723,621.91142 c 7.84482,7.82569 -5.50105,21.86239 -12.08128,11.35713 -4.75597,-8.11441 3.98219,-18.50642 12.08128,-11.35713 z m -0.19989,6.37426 c -0.56953,-15.04511 -20.11848,1.01382 -6.7647,6.51255 3.84179,0.94703 7.64056,-2.63589 6.7647,-6.51255 z"
             id="path6170"
             inkscape:connector-curvature="0" />
          <path
             d="m 185.44156,636.54779 c -4.74643,-0.67512 -1.1106,-9.07445 -2.19878,-12.9734 -0.29508,-2.30472 -2.89999,5.65193 -4.10173,7.37499 -3.66613,3.2136 -7.1063,-15.26527 -6.37027,-2.86018 -0.20011,2.36952 1.0605,11.74153 -2.15184,6.98537 0.19977,-5.01396 0.0515,-10.04163 0.0974,-15.0621 6.01222,-0.16092 6.92662,14.53035 10.09067,3.41243 2.40122,-7.65323 6.21542,-0.28912 4.63454,4.57364 0,2.84975 0,5.6995 0,8.54925 z"
             id="path6172"
             inkscape:connector-curvature="0" />
          <path
             d="m 200.72202,625.00971 c 0.0125,6.77157 -11.35367,3.3257 -9.36041,11.64339 -3.08062,-1.59376 -0.71203,-7.33052 -1.45585,-10.67585 -3.18639,-8.96732 10.01096,-7.80163 10.81626,-0.96754 z m -2.28763,0.0555 c -9.14252,-13.0917 -8.38327,13.41726 0,0 z"
             id="path6174"
             inkscape:connector-curvature="0" />
        </g>
      </g>
    </g>
  </g>
</svg>
